<?xml version="1.0" encoding="UTF-8" standalone="no"?>
<!-- Created with Inkscape (http://www.inkscape.org/) -->

<svg
   width="1000"
   height="1000"
   viewBox="0 0 264.58333 264.58334"
   version="1.1"
   id="svg2279"
   xmlns="http://www.w3.org/2000/svg"
   xmlns:svg="http://www.w3.org/2000/svg">
  <defs
     id="defs2276" />
  <g
     id="g4769"
     transform="matrix(0.88989761,0,0,0.88989761,7.7215947,18.576194)"
     style="stroke:none;opacity:1">
    <path
       style="fill:#ffffff;stroke:none;stroke-width:0.264583px;stroke-linecap:butt;stroke-linejoin:miter;stroke-opacity:1"
       d="M 15.852007,2.0250809 -3.0502317,275.4377 264.22633,261.83628 208.93494,-20.781929 Z"
       id="path4470" />
    <g
       id="g2465"
       transform="matrix(0.01383535,0,0,-0.01383535,24.664515,553.30547)"
       style="fill:#004bd9;fill-opacity:1;stroke:none">
      <g
         id="g1130"
         transform="scale(1.85977)"
         style="fill:#004bd9;fill-opacity:1;stroke:none">
        <path
           d="m 3252.11,16141.6 292.12,-715.9 432.97,-539.9 111.44,74.2 37.46,183.8 c -23.9,180 -42.65,357.8 -42.65,531.3 80.78,-56.4 161.44,-118.4 242.12,-185.8 l 14.14,24.4 265.05,170.2 97.45,457.7 -748.45,158.4 -701.65,-158.4"
           style="fill:#004bd9;fill-opacity:1;fill-rule:evenodd;stroke:none"
           id="path1132" />
      </g>
      <g
         id="g1134"
         transform="scale(2.1378)"
         style="fill:#004bd9;fill-opacity:1;stroke:none">
        <path
           d="m 4011.56,16273.2 297.59,-640.6 295.5,-295.5 c 114.97,189.3 289.31,386.5 522.96,591.7 8.04,-12.7 16.89,-27.6 26.52,-44.5 l 185.71,109.5 12.39,233.5 -564.13,72.7 -776.54,-26.8"
           style="fill:#004bd9;fill-opacity:1;fill-rule:evenodd;stroke:none"
           id="path1136" />
      </g>
      <g
         id="g1138"
         transform="scale(2.12827)"
         style="fill:#004bd9;fill-opacity:1;stroke:none">
        <path
           d="m 5720.33,15821.3 -285.72,466 -58.4,12.7 -198.99,-344.6 c 67.85,-119.4 175.31,-344.1 321.01,-675.6 8.83,-18.4 23.26,-44.1 43.23,-77.2 l 194.33,-102.5 267.12,102.5 -4.41,19.6 -278.17,599.1"
           style="fill:#004bd9;fill-opacity:1;fill-rule:evenodd;stroke:none"
           id="path1140" />
      </g>
      <g
         id="g1142"
         transform="scale(1.72785)"
         style="fill:#004bd9;fill-opacity:1;stroke:none">
        <path
           d="m 4280.87,16022.3 114.6,-78.2 84.53,78.2 c -13.16,93 -26.65,185.6 -38.87,277.7 l -160.26,-277.7"
           style="fill:#004bd9;fill-opacity:1;fill-rule:evenodd;stroke:none"
           id="path1144" />
      </g>
      <g
         id="g1146"
         transform="scale(1.8417)"
         style="fill:#004bd9;fill-opacity:1;stroke:none">
        <path
           d="m 4748.35,16300 -366.06,-634 -14.29,-24.8 c 202.27,-169 404.27,-372.1 606.02,-609.4 l 257.54,-52.7 248.97,52.7 -246.52,683.3 -485.66,584.9"
           style="fill:#004bd9;fill-opacity:1;fill-rule:evenodd;stroke:none"
           id="path1148" />
      </g>
      <g
         id="g1150"
         transform="scale(1.85609)"
         style="fill:#004bd9;fill-opacity:1;stroke:none">
        <path
           d="m 6943.89,16300 -146.33,-126.4 c 47.04,-159.9 128.45,-313.9 164.17,-306.6 58.94,12.1 7.21,87.7 42.23,109 11.91,-9.6 16.71,-26.3 16.71,-47.8 0,-116 -112.17,-229.5 -112.17,-269.7 0,-21.5 16.59,-33.5 47.68,-33.5 190.99,0 286.46,169.5 286.46,510.9 0,12.2 -0.38,24.7 -1.19,37.7 l -297.56,126.4"
           style="fill:#004bd9;fill-opacity:1;fill-rule:evenodd;stroke:none"
           id="path1152" />
      </g>
      <g
         id="g1154"
         transform="scale(1.98498)"
         style="fill:#004bd9;fill-opacity:1;stroke:none">
        <path
           d="m 5941.47,16300 c 43.93,-73 112.8,-179.3 205.89,-319 22.62,-29.7 43.38,-58.4 62.17,-86.4 l 187.86,104.1 40.91,292.2 -2.07,9.1 h -494.76"
           style="fill:#004bd9;fill-opacity:1;fill-rule:evenodd;stroke:none"
           id="path1156" />
      </g>
      <g
         id="g1158"
         transform="scale(1.92636)"
         style="fill:#004bd9;fill-opacity:1;stroke:none">
        <path
           d="m 4736.8,16133.2 -197.13,-549.5 558.47,-90.6 211.67,90.6 c -186.33,324.2 -305.41,563.6 -356.53,716.3 l -216.48,-166.8"
           style="fill:#004bd9;fill-opacity:1;fill-rule:evenodd;stroke:none"
           id="path1160" />
      </g>
      <g
         id="g1168"
         transform="scale(1.56705)"
         style="fill:#004bd9;fill-opacity:1;stroke:none">
        <path
           d="m 7520.31,16300 -218.69,-123.9 347.53,-877.5 512.94,-613 35.23,61.1 c -149.71,332.7 -317.1,961.2 -440.19,1429.4 l -236.82,123.9"
           style="fill:#004bd9;fill-opacity:1;fill-rule:evenodd;stroke:none"
           id="path1170" />
      </g>
      <g
         id="g1172"
         transform="scale(1.56308)"
         style="fill:#004bd9;fill-opacity:1;stroke:none">
        <path
           d="m 6832.15,16217.2 c 63.21,-180.2 131.22,-338.4 205.18,-490 l 200.11,223 82.72,267 -253.02,82.8 -234.99,-82.8"
           style="fill:#004bd9;fill-opacity:1;fill-rule:evenodd;stroke:none"
           id="path1174" />
      </g>
      <g
         id="g1176"
         transform="scale(2.13184)"
         style="fill:#004bd9;fill-opacity:1;stroke:none">
        <path
           d="m 1572.04,16272.7 31.4,-132.9 118.73,-127.1 c 77.76,98.8 148.85,185.5 213.28,260 l -204.82,27.3 -158.59,-27.3"
           style="fill:#004bd9;fill-opacity:1;fill-rule:evenodd;stroke:none"
           id="path1178" />
      </g>
      <g
         id="g1180"
         transform="scale(2.12827)"
         style="fill:#004bd9;fill-opacity:1;stroke:none">
        <path
           d="m 1084.69,15750.4 c -88.132,-31.9 -279.668,-97.8 -349.034,-191.9 l 71.236,-216.8 134.17,-139.1 391.978,548.7 241.64,548.7 h -165.24 c -105.02,-182 -206.31,-367.5 -324.75,-549.6"
           style="fill:#004bd9;fill-opacity:1;fill-rule:evenodd;stroke:none"
           id="path1182" />
      </g>
      <g
         id="g1184"
         transform="scale(1.8417)"
         style="fill:#004bd9;fill-opacity:1;stroke:none">
        <path
           d="m 2914.78,15660.5 c 79.04,-211.3 169.37,-419.7 254.8,-628.7 l 167.2,-59.8 679.44,59.8 -732.2,1268.2 -369.24,-639.5"
           style="fill:#004bd9;fill-opacity:1;fill-rule:evenodd;stroke:none"
           id="path1186" />
      </g>
      <g
         id="g1188"
         transform="scale(1.69841)"
         style="fill:#004bd9;fill-opacity:1;stroke:none">
        <path
           d="m 4486.07,16210.6 -131.01,89.4 -519.03,-596 -274.95,-779 209.16,-68.7 334.89,68.7 c 141.43,124.5 285.9,249.2 436.77,376.8 57.42,60 86.1,132.9 86.1,226.9 0,108.4 -6.14,217.2 -15.88,326.1 l -126.05,355.8"
           style="fill:#004bd9;fill-opacity:1;fill-rule:evenodd;stroke:none"
           id="path1190" />
      </g>
      <g
         id="g1192"
         transform="scale(1.71113)"
         style="fill:#004bd9;fill-opacity:1;stroke:none">
        <path
           d="m 6296.96,16300 -398.22,-121.1 314.59,-750.5 473.48,-614.4 208.58,242.8 71.82,242.9 c -55.87,140 -208.16,497.7 -372.38,879.2 l -297.87,121.1"
           style="fill:#004bd9;fill-opacity:1;fill-rule:evenodd;stroke:none"
           id="path1194" />
      </g>
      <g
         id="g1196"
         transform="scale(2.19464)"
         style="fill:#004bd9;fill-opacity:1;stroke:none">
        <path
           d="m 5316.86,16139.9 -103.25,-332.9 177.06,-38.3 149.09,38.3 c 5.38,53.6 8.21,158.7 8.21,314.9 0,53.6 -16.91,112.9 -49.76,178.1 l -181.35,-160.1"
           style="fill:#004bd9;fill-opacity:1;fill-rule:evenodd;stroke:none"
           id="path1198" />
      </g>
      <g
         id="g1200"
         transform="scale(1.99531)"
         style="fill:#004bd9;fill-opacity:1;stroke:none">
        <path
           d="m 2579.71,16215.6 c -1.06,-2.8 -1.61,-5 -1.61,-6.4 -39.81,-68.8 -71.84,-139.9 -95.9,-213.2 l 211.07,-365.6 337.92,-585.3 396.32,526.8 326.01,668.3 -683.37,59.8 -490.44,-84.4"
           style="fill:#004bd9;fill-opacity:1;fill-rule:evenodd;stroke:none"
           id="path1202" />
      </g>
      <g
         id="g1204"
         transform="scale(2.27155)"
         style="fill:#004bd9;fill-opacity:1;stroke:none">
        <path
           d="m 2303.04,15766 150.35,-131.9 c 137.35,10.3 277.75,8.4 410.01,8.4 -0.83,-8.9 -1.95,-18.5 -3.31,-28.6 l 167.74,166.3 228.4,519.8 -1080.3,-185.3 127.11,-348.7"
           style="fill:#004bd9;fill-opacity:1;fill-rule:evenodd;stroke:none"
           id="path1206" />
      </g>
      <g
         id="g1208"
         transform="scale(2.27632)"
         style="fill:#004bd9;fill-opacity:1;stroke:none">
        <path
           d="m 3249.41,16265.9 253.51,-544.3 338.83,-481.7 341.74,490.2 250.65,535.8 -586.7,34.1 -598.03,-34.1"
           style="fill:#004bd9;fill-opacity:1;fill-rule:evenodd;stroke:none"
           id="path1210" />
      </g>
      <g
         id="g1212"
         transform="scale(2.27711)"
         style="fill:#004bd9;fill-opacity:1;stroke:none">
        <path
           d="m 4957.9,16071.2 c 15.9,55.8 35.18,120 54.37,189 l -283.47,39.8 -303.11,-35.9 268.85,-550.9 330.24,-478.7 274.3,475.2 c -22.04,43.7 -51.56,90.2 -88.27,139.7 -91.43,122.6 -175.09,194.5 -252.91,221.8"
           style="fill:#004bd9;fill-opacity:1;fill-rule:evenodd;stroke:none"
           id="path1214" />
      </g>
      <g
         id="g1216"
         transform="scale(2.40987)"
         style="fill:#004bd9;fill-opacity:1;stroke:none">
        <path
           d="m 4052.29,16178.7 c -106.89,-104.6 -126.38,-235.7 -121.06,-368.8 l 80.75,-206.2 176.41,-239.3 316.66,426 175.32,426.1 c -68.55,52.5 -166.36,83.5 -302.67,83.5 -130.55,0 -239,-40.5 -325.41,-121.3"
           style="fill:#004bd9;fill-opacity:1;fill-rule:evenodd;stroke:none"
           id="path1218" />
      </g>
      <g
         id="g1220"
         transform="scale(1.77075)"
         style="fill:#004bd9;fill-opacity:1;stroke:none">
        <path
           d="m 6080.87,16293.7 -229.05,-217 -151.69,-442.6 h 672.66 c -98.16,228.1 -200.65,464.8 -288.25,665.9 l -3.67,-6.3"
           style="fill:#004bd9;fill-opacity:1;fill-rule:evenodd;stroke:none"
           id="path1222" />
      </g>
      <g
         id="g1224"
         transform="scale(2.13991)"
         style="fill:#004bd9;fill-opacity:1;stroke:none">
        <path
           d="m 3011.13,16277.6 -59.75,-66.3 c -13.52,-46.6 -28.07,-94.1 -43.33,-141.4 l 184.96,-464.8 363.53,-485.2 381.63,479.2 248.47,612.2 -132.7,88.7 -942.81,-22.4"
           style="fill:#004bd9;fill-opacity:1;fill-rule:evenodd;stroke:none"
           id="path1226" />
      </g>
      <g
         id="g1228"
         transform="scale(2.00405)"
         style="fill:#004bd9;fill-opacity:1;stroke:none">
        <path
           d="m 4415.38,16300 -724.52,-155.1 294.41,-611.8 378.41,-553.6 336.46,582.7 61.11,105.9 c -18.44,55 -27.67,98.4 -27.67,129.9 0,112.4 23.37,228.1 70.02,346.9 l -388.22,155.1"
           style="fill:#004bd9;fill-opacity:1;fill-rule:evenodd;stroke:none"
           id="path1230" />
      </g>
      <g
         id="g1232"
         transform="scale(1.83601)"
         style="fill:#004bd9;fill-opacity:1;stroke:none">
        <path
           d="m 720.524,15983.9 244.394,-244.4 244.402,-244.3 158.02,402.4 158.02,402.4 -402.42,-158 -402.416,-158.1"
           style="fill:#004bd9;fill-opacity:1;fill-rule:evenodd;stroke:none"
           id="path1234" />
      </g>
      <g
         id="g1542"
         transform="scale(1.97517)"
         style="fill:#004bd9;fill-opacity:1;stroke:none">
        <path
           d="M 858.094,16158.4 939.84,16300 H 671.361 c 58.593,-61.8 121.539,-111.7 186.733,-141.6"
           style="fill:#004bd9;fill-opacity:1;fill-rule:evenodd;stroke:none"
           id="path1544" />
      </g>
      <g
         id="g1546"
         transform="scale(2.03145)"
         style="fill:#004bd9;fill-opacity:1;stroke:none">
        <path
           d="m 743.767,16226.2 c 0,-65.4 59.513,-213.2 140.919,-299 H 985.914 L 770.718,16300 c -16.954,-23 -26.951,-47.6 -26.951,-73.8"
           style="fill:#004bd9;fill-opacity:1;fill-rule:evenodd;stroke:none"
           id="path1548" />
      </g>
      <g
         id="g1550"
         transform="scale(1.95592)"
         style="fill:#004bd9;fill-opacity:1;stroke:none">
        <path
           d="m 905.449,16107.6 c 59.369,-27.3 120.091,-42.4 181.441,-42.4 20.94,0 41.87,1.4 62.92,4 l -133.32,230.8 -111.041,-192.4"
           style="fill:#004bd9;fill-opacity:1;fill-rule:evenodd;stroke:none"
           id="path1552" />
      </g>
      <g
         id="g1554"
         transform="scale(1.98498)"
         style="fill:#004bd9;fill-opacity:1;stroke:none">
        <path
           d="m 1046.88,16234.4 c 40.58,5 81.33,27.1 123.64,65.6 h -161.53 l 37.89,-65.6"
           style="fill:#004bd9;fill-opacity:1;fill-rule:evenodd;stroke:none"
           id="path1556" />
      </g>
      <g
         id="g1558"
         transform="scale(2.16254)"
         style="fill:#004bd9;fill-opacity:1;stroke:none">
        <path
           d="m 1210.06,16129.3 h 199 l -98.57,170.7 c -34.08,-56.5 -67.42,-113.5 -100.43,-170.7"
           style="fill:#004bd9;fill-opacity:1;fill-rule:evenodd;stroke:none"
           id="path1560" />
      </g>
      <g
         id="g1562"
         transform="scale(2.23148)"
         style="fill:#004bd9;fill-opacity:1;stroke:none">
        <path
           d="m 1423.78,15681.2 78.06,-135.1 310.86,473.9 124.44,280 c -35.7,-16.7 -63.92,-32.6 -82.61,-47.1 -176.76,-176.8 -309.7,-370.8 -430.75,-571.7"
           style="fill:#004bd9;fill-opacity:1;fill-rule:evenodd;stroke:none"
           id="path1564" />
      </g>
      <g
         id="g1566"
         transform="scale(2.12827)"
         style="fill:#004bd9;fill-opacity:1;stroke:none">
        <path
           d="m 1257.86,15751.3 -316.798,-548.7 h 150.658 c 13.45,12.2 27.02,26.2 40.86,41.9 60.31,68.6 151.95,191.5 270.58,368.4 117.64,161.2 224.93,303.4 321.9,426.7 l -150.38,260.4 -316.82,-548.7"
           style="fill:#004bd9;fill-opacity:1;fill-rule:evenodd;stroke:none"
           id="path1568" />
      </g>
      <g
         id="g1570"
         transform="scale(1.97288)"
         style="fill:#004bd9;fill-opacity:1;stroke:none">
        <path
           d="m 2230.58,16300 c -35.27,-107.8 -53.43,-220.7 -53.43,-339.1 0,-189.3 26.67,-396.7 79.58,-622.6 h 529.1 l -341.78,591.9 -213.47,369.8"
           style="fill:#004bd9;fill-opacity:1;fill-rule:evenodd;stroke:none"
           id="path1572" />
      </g>
      <g
         id="g1574"
         transform="scale(2.24573)"
         style="fill:#004bd9;fill-opacity:1;stroke:none">
        <path
           d="m 2200.94,16300 c -111.56,-35.9 -207.77,-71.4 -276.09,-103.4 l -132.32,-229.2 -300.22,-520 h 344.99 c 168.5,194.9 288.84,302 360.59,321.6 90.45,24.3 186.32,37.6 283.71,44.9 l -88.65,153.5 -192.01,332.6"
           style="fill:#004bd9;fill-opacity:1;fill-rule:evenodd;stroke:none"
           id="path1576" />
      </g>
      <g
         id="g1578"
         transform="scale(2.10969)"
         style="fill:#004bd9;fill-opacity:1;stroke:none">
        <path
           d="m 2949.72,16300 c -69.38,-215.5 -152.67,-426.4 -217.36,-522.3 -181.38,-259.4 -279.41,-406.4 -292.51,-441.2 h 427 639.2 l -319.62,553.5 -236.71,410"
           style="fill:#004bd9;fill-opacity:1;fill-rule:evenodd;stroke:none"
           id="path1580" />
      </g>
      <g
         id="g1582"
         transform="scale(1.98498)"
         style="fill:#004bd9;fill-opacity:1;stroke:none">
        <path
           d="m 3726.32,16300 -339.69,-588.3 -339.66,-588.3 h 679.35 679.28 l -339.63,588.3 -339.65,588.3"
           style="fill:#004bd9;fill-opacity:1;fill-rule:evenodd;stroke:none"
           id="path1584" />
      </g>
      <g
         id="g1586"
         transform="scale(2.28555)"
         style="fill:#004bd9;fill-opacity:1;stroke:none">
        <path
           d="m 2587.11,16233.2 h 384.66 l -38.58,66.8 c -96.02,-14.5 -216.36,-37.9 -346.08,-66.8"
           style="fill:#004bd9;fill-opacity:1;fill-rule:evenodd;stroke:none"
           id="path1588" />
      </g>
      <g
         id="g1590"
         transform="scale(2.40613)"
         style="fill:#004bd9;fill-opacity:1;stroke:none">
        <path
           d="m 2946.38,16052.6 300.94,55.3 c -62.3,58.9 -133.82,123.4 -212.9,192.1 l -88.04,-247.4"
           style="fill:#004bd9;fill-opacity:1;fill-rule:evenodd;stroke:none"
           id="path1592" />
      </g>
      <g
         id="g1594"
         transform="scale(2.27155)"
         style="fill:#004bd9;fill-opacity:1;stroke:none">
        <path
           d="m 3256.23,16300 -296.84,-514.1 -99.3,-172 c -11.36,-84.2 -41.07,-208.8 -79.74,-342 h 475.88 593.59 l -296.79,514 -296.8,514.1"
           style="fill:#004bd9;fill-opacity:1;fill-rule:evenodd;stroke:none"
           id="path1596" />
      </g>
      <g
         id="g1598"
         transform="scale(2.12827)"
         style="fill:#004bd9;fill-opacity:1;stroke:none">
        <path
           d="m 4109,16300 -316.77,-548.7 -316.78,-548.7 H 4109 4523.24 c 26.21,66.7 60.22,134.5 102.03,203.2 L 4425.82,15751.3 4109,16300"
           style="fill:#004bd9;fill-opacity:1;fill-rule:evenodd;stroke:none"
           id="path1600" />
      </g>
      <g
         id="g1602"
         transform="scale(2.33741)"
         style="fill:#004bd9;fill-opacity:1;stroke:none">
        <path
           d="m 4083.09,15946.7 -918.61,-106 h 576.86 576.9 l -265.13,459.3 c 4.88,-122.1 29.98,-245.8 29.98,-353.3"
           style="fill:#004bd9;fill-opacity:1;fill-rule:evenodd;stroke:none"
           id="path1604" />
      </g>
      <g
         id="g1606"
         transform="scale(2.27155)"
         style="fill:#004bd9;fill-opacity:1;stroke:none">
        <path
           d="m 4443.45,16300 -296.79,-514.1 -296.84,-514 h 593.63 593.65 l -296.85,514 -296.8,514.1"
           style="fill:#004bd9;fill-opacity:1;fill-rule:evenodd;stroke:none"
           id="path1608" />
      </g>
      <g
         id="g1610"
         transform="scale(2.12827)"
         style="fill:#004bd9;fill-opacity:1;stroke:none">
        <path
           d="m 5712.54,16300 h -336.33 l 316.78,-548.7 305.51,-529.1 c -16.68,73 -35.57,156.8 -56.86,251.3 l -229.1,826.5"
           style="fill:#004bd9;fill-opacity:1;fill-rule:evenodd;stroke:none"
           id="path1612" />
      </g>
      <g
         id="g1614"
         transform="scale(1.98387)"
         style="fill:#004bd9;fill-opacity:1;stroke:none">
        <path
           d="m 6523.82,15958.7 c -13.67,47 -40.78,161.1 -81.91,341.3 l -228.9,-396.5 c 116.79,-173.7 158.58,-320.5 116.49,-538.9 -9.18,-61.8 5.39,-148.2 30.24,-232.7 h 87.46 327.84 c -6.25,104.3 -39.62,235.7 -101.67,395.8 l -149.55,431"
           style="fill:#004bd9;fill-opacity:1;fill-rule:evenodd;stroke:none"
           id="path1616" />
      </g>
      <g
         id="g1618"
         transform="scale(2.39753)"
         style="fill:#004bd9;fill-opacity:1;stroke:none">
        <path
           d="m 4704.47,16300 -213.3,-369.4 -281.21,-487.1 h 550.57 c 82.71,296.7 164.67,687.4 -56.06,856.5"
           style="fill:#004bd9;fill-opacity:1;fill-rule:evenodd;stroke:none"
           id="path1620" />
      </g>
      <g
         id="g1622"
         transform="scale(1.41185)"
         style="fill:#004bd9;fill-opacity:1;stroke:none">
        <path
           d="m 2491.76,15834.1 c 0,-238.6 107.06,-380.7 322.89,-424.6 l 36.6,63.4 419.18,371.3 58.38,455.8 h -731.69 c -69.77,-157.2 -105.36,-312.1 -105.36,-465.9"
           style="fill:#004bd9;fill-opacity:1;fill-rule:evenodd;stroke:none"
           id="path1624" />
      </g>
      <g
         id="g1626"
         transform="scale(1.46342)"
         style="fill:#004bd9;fill-opacity:1;stroke:none">
        <path
           d="m 2706.74,16063.3 c -84.54,-114.1 -151.73,-226.5 -201.14,-337.7 h 705.9 l -331.62,574.4 c -49.98,-72.2 -106.94,-150.3 -173.14,-236.7"
           style="fill:#004bd9;fill-opacity:1;fill-rule:evenodd;stroke:none"
           id="path1628" />
      </g>
      <g
         id="g1630"
         transform="scale(1.55514)"
         style="fill:#004bd9;fill-opacity:1;stroke:none">
        <path
           d="m 2710.03,15338.7 312.07,-540.6 608.88,856.2 258.19,645.7 h -685.84 c -182.56,-403.8 -250.59,-610.4 -493.3,-961.3"
           style="fill:#004bd9;fill-opacity:1;fill-rule:evenodd;stroke:none"
           id="path1632" />
      </g>
      <g
         id="g1634"
         transform="scale(1.41185)"
         style="fill:#004bd9;fill-opacity:1;stroke:none">
        <path
           d="m 3328.81,16300 -477.56,-827.1 -36.6,-63.4 c 48.06,-9.7 101.56,-14.7 160.45,-14.7 166.34,0 285.64,56.5 354.58,169.4 166.64,-311.7 411.56,-490 732.67,-534.7 l -256.04,443.4 -477.5,827.1"
           style="fill:#004bd9;fill-opacity:1;fill-rule:evenodd;stroke:none"
           id="path1636" />
      </g>
      <g
         id="g1638"
         transform="scale(1.42022)"
         style="fill:#004bd9;fill-opacity:1;stroke:none">
        <path
           d="m 4231.76,16300 -922.56,-96 370.97,-826.1 358.25,-437 c 53.57,-7.5 109.25,-11.3 167.08,-11.3 102.07,0 200.9,16.7 294.04,47.2 l 425.88,431.9 234.33,711.5 c -6.04,28.3 -13.23,56.3 -21.61,83.8 l -906.38,96"
           style="fill:#004bd9;fill-opacity:1;fill-rule:evenodd;stroke:none"
           id="path1640" />
      </g>
      <g
         id="g1642"
         transform="scale(1.8417)"
         style="fill:#004bd9;fill-opacity:1;stroke:none">
        <path
           d="m 2914.78,15660.5 3.13,5.5 366.11,634 h -566.78 c 46.8,-199.7 112.73,-412.8 197.54,-639.5"
           style="fill:#004bd9;fill-opacity:1;fill-rule:evenodd;stroke:none"
           id="path1644" />
      </g>
      <g
         id="g1646"
         transform="scale(1.62169)"
         style="fill:#004bd9;fill-opacity:1;stroke:none">
        <path
           d="m 2812.03,15982.6 c -23.29,-49.7 -44.67,-96.3 -64.66,-140.5 h 657.7 l -264.4,457.9 c -165.48,-94.3 -275.67,-199.5 -328.64,-317.4"
           style="fill:#004bd9;fill-opacity:1;fill-rule:evenodd;stroke:none"
           id="path1648" />
      </g>
      <g
         id="g1650"
         transform="scale(1.69841)"
         style="fill:#004bd9;fill-opacity:1;stroke:none">
        <path
           d="m 3436.99,16300 c 156.67,-383.3 236.22,-589.1 236.22,-614.8 0,-93.9 -99.15,-187.8 -297.44,-287 -23.35,-11.8 -45.69,-23.8 -67.14,-36 l 252.45,-437.2 396.97,687.5 397.01,687.5 h -793.98 -124.09"
           style="fill:#004bd9;fill-opacity:1;fill-rule:evenodd;stroke:none"
           id="path1652" />
      </g>
      <g
         id="g1654"
         transform="scale(1.55514)"
         style="fill:#004bd9;fill-opacity:1;stroke:none">
        <path
           d="m 3840.64,15440.8 c -139.59,0 -273.5,-31.3 -398.91,-96.9 222.88,211.7 436.11,410.8 649.91,605.4 l -202.47,350.7 -433.57,-750.9 -433.5,-751 h 867.07 803.2 c -112.03,367.7 -447.29,642.7 -851.73,642.7"
           style="fill:#004bd9;fill-opacity:1;fill-rule:evenodd;stroke:none"
           id="path1656" />
      </g>
      <g
         id="g1658"
         transform="scale(1.55514)"
         style="fill:#004bd9;fill-opacity:1;stroke:none">
        <path
           d="m 4091.64,15949.3 c 129.61,118 259.39,234.2 391.69,350.7 h -594.16 l 202.47,-350.7"
           style="fill:#004bd9;fill-opacity:1;fill-rule:evenodd;stroke:none"
           id="path1660" />
      </g>
      <g
         id="g1662"
         transform="scale(1.40455)"
         style="fill:#004bd9;fill-opacity:1;stroke:none">
        <path
           d="m 4786.17,15553.4 -236.44,-409.5 c 396.3,129.9 690.07,509.5 690.07,942.9 0,72.8 -7.81,144.2 -22.49,213.2 l -431.14,-746.6"
           style="fill:#004bd9;fill-opacity:1;fill-rule:evenodd;stroke:none"
           id="path1664" />
      </g>
      <g
         id="g1666"
         transform="scale(1.69841)"
         style="fill:#004bd9;fill-opacity:1;stroke:none">
        <path
           d="m 5711.7,15899.5 186.69,133.4 44.52,267.1 h -549.25 c 106.09,-124.7 212.07,-258.2 318.04,-400.5"
           style="fill:#004bd9;fill-opacity:1;fill-rule:evenodd;stroke:none"
           id="path1668" />
      </g>
      <g
         id="g1670"
         transform="scale(1.69841)"
         style="fill:#004bd9;fill-opacity:1;stroke:none">
        <path
           d="m 4355.06,16300 257.06,-445.2 c -13.36,148.6 -33.52,297.3 -54.48,445.2 h -202.58"
           style="fill:#004bd9;fill-opacity:1;fill-rule:evenodd;stroke:none"
           id="path1672" />
      </g>
      <g
         id="g1674"
         transform="scale(1.41185)"
         style="fill:#004bd9;fill-opacity:1;stroke:none">
        <path
           d="m 8580.11,15501.5 c 3.19,-4.1 6.94,-8.2 11.26,-12 l 467.97,810.5 h -716.37 c 54.75,-247.3 134.37,-513.4 237.14,-798.5"
           style="fill:#004bd9;fill-opacity:1;fill-rule:evenodd;stroke:none"
           id="path1676" />
      </g>
      <g
         id="g1678"
         transform="scale(1.8417)"
         style="fill:#004bd9;fill-opacity:1;stroke:none">
        <path
           d="m 5553.89,16300 h -73.36 -732.18 l 366.12,-634 366.06,-634.2 366.07,634.2 3.53,6 c -118.31,271.7 -208.17,475.7 -218.11,493.8 -27.26,46.2 -53.21,90.9 -78.13,134.2"
           style="fill:#004bd9;fill-opacity:1;fill-rule:evenodd;stroke:none"
           id="path1680" />
      </g>
      <g
         id="g1682"
         transform="scale(1.69841)"
         style="fill:#004bd9;fill-opacity:1;stroke:none">
        <path
           d="m 5942.91,16300 -231.21,-400.5 c 166.65,-223.6 333.24,-468.9 499.81,-736 24.61,-84.6 49.99,-163.7 76.25,-238.5 h 449.12 l -397.01,687.5 -396.96,687.5"
           style="fill:#004bd9;fill-opacity:1;fill-rule:evenodd;stroke:none"
           id="path1684" />
      </g>
      <g
         id="g1686"
         transform="scale(1.55514)"
         style="fill:#004bd9;fill-opacity:1;stroke:none">
        <path
           d="m 7357.56,16300 -284.28,-492.4 c 135.22,-277.5 290.07,-533.6 471.21,-862.6 8.81,-48.1 18.71,-97.1 29.77,-146.9 h 650.36 l -433.53,751 -433.53,750.9"
           style="fill:#004bd9;fill-opacity:1;fill-rule:evenodd;stroke:none"
           id="path1688" />
      </g>
      <g
         id="g1690"
         transform="scale(1.41185)"
         style="fill:#004bd9;fill-opacity:1;stroke:none">
        <path
           d="m 9059.3,16300 -467.97,-810.6 c 71.12,-64.1 290.33,-94.7 660.27,-94.7 91.87,0 212.14,-15.3 359.03,-49.6 l -73.8,127.8 -477.53,827.1"
           style="fill:#004bd9;fill-opacity:1;fill-rule:evenodd;stroke:none"
           id="path1692" />
      </g>
      <g
         id="g1694"
         transform="scale(1.41185)"
         style="fill:#004bd9;fill-opacity:1;stroke:none">
        <path
           d="m 9982.88,15793.4 c -445.58,166.2 -696.67,285.5 -753.12,354.5 -31.59,31.6 -64.89,84 -99.17,152.1 h -71.25 l 477.53,-827.1 73.81,-127.7 c 28.96,-6.8 58.85,-14.4 89.81,-22.6 622.01,-165.7 1332.11,55.8 282.39,470.8"
           style="fill:#004bd9;fill-opacity:1;fill-rule:evenodd;stroke:none"
           id="path1696" />
      </g>
      <g
         id="g1698"
         transform="scale(1.60612)"
         style="fill:#004bd9;fill-opacity:1;stroke:none">
        <path
           d="m 7422.75,16300 -298.73,-517.4 h 444.42 c -51.24,194.9 -94.57,361.2 -125.46,464.7 -3.92,11.1 -10.83,29.1 -20.23,52.7"
           style="fill:#004bd9;fill-opacity:1;fill-rule:evenodd;stroke:none"
           id="path1700" />
      </g>
      <g
         id="g1702"
         transform="scale(1.41772)"
         style="fill:#004bd9;fill-opacity:1;stroke:none">
        <path
           d="m 9021.82,16232.5 h 70.96 c -10.58,20.9 -21.23,43.5 -32.02,67.5 l -38.94,-67.5"
           style="fill:#004bd9;fill-opacity:1;fill-rule:evenodd;stroke:none"
           id="path1704" />
      </g>
      <g
         id="g1706"
         transform="scale(2.08979)"
         style="fill:#004bd9;fill-opacity:1;stroke:none">
        <path
           d="m 1860.81,15577.1 h 353.16 l -417.41,722.9 c 4.46,-229.4 25.94,-470.4 64.25,-722.9"
           style="fill:#004bd9;fill-opacity:1;fill-rule:evenodd;stroke:none"
           id="path1708" />
      </g>
      <g
         id="g1710"
         transform="scale(1.83371)"
         style="fill:#004bd9;fill-opacity:1;stroke:none">
        <path
           d="m 1880.51,15765.1 308.86,534.9 h -408.39 c 26.31,-173.6 59.48,-351.8 99.53,-534.9"
           style="fill:#004bd9;fill-opacity:1;fill-rule:evenodd;stroke:none"
           id="path1712" />
      </g>
      <g
         id="g1714"
         transform="scale(2.00849)"
         style="fill:#004bd9;fill-opacity:1;stroke:none">
        <path
           d="m 1503.41,16300 -163.65,-234.2 -163.64,-234.3 350.37,-70.5 350.37,-70.5 -186.72,304.8 -186.73,304.7"
           style="fill:#004bd9;fill-opacity:1;fill-rule:evenodd;stroke:none"
           id="path1716" />
      </g>
      <g
         id="g1718"
         transform="scale(1.91101)"
         style="fill:#004bd9;fill-opacity:1;stroke:none">
        <path
           d="m 848.762,16300 90.749,-283.7 90.739,-283.8 279.98,245.9 279.96,245.9 -370.71,37.9 -370.718,37.8"
           style="fill:#004bd9;fill-opacity:1;fill-rule:evenodd;stroke:none"
           id="path1720" />
      </g>
      <g
         id="g1722"
         transform="scale(2.1358)"
         style="fill:#004bd9;fill-opacity:1;stroke:none">
        <path
           d="m 860.081,16300 -91.544,-131 -91.555,-131.1 196.017,-39.4 196.021,-39.5 -104.459,170.5 -104.48,170.5"
           style="fill:#004bd9;fill-opacity:1;fill-rule:evenodd;stroke:none"
           id="path1724" />
      </g>
      <g
         id="g1726"
         transform="scale(1.59757)"
         style="fill:#004bd9;fill-opacity:1;stroke:none">
        <path
           d="m 1274.83,16300 -113.57,-332.3 -113.58,-332.3 437.82,35.9 437.8,35.9 -324.24,296.4 -324.23,296.4"
           style="fill:#004bd9;fill-opacity:1;fill-rule:evenodd;stroke:none"
           id="path1728" />
      </g>
      <g
         id="g1730"
         transform="scale(1.77274)"
         style="fill:#004bd9;fill-opacity:1;stroke:none">
        <path
           d="m 1972.28,15529.6 c 347.89,-85.1 709.84,-160.8 1086.28,-227.3 l -769.43,997.7 -316.85,-770.4"
           style="fill:#004bd9;fill-opacity:1;fill-rule:evenodd;stroke:none"
           id="path1732" />
      </g>
      <g
         id="g1734"
         transform="scale(1.4808)"
         style="fill:#004bd9;fill-opacity:1;stroke:none">
        <path
           d="m 1321.38,16300 -91.89,-268.9 -91.91,-268.9 354.25,29.1 354.23,29.1 -262.33,239.8 -262.35,239.8"
           style="fill:#004bd9;fill-opacity:1;fill-rule:evenodd;stroke:none"
           id="path1736" />
      </g>
      <g
         id="g1738"
         transform="scale(1.73171)"
         style="fill:#004bd9;fill-opacity:1;stroke:none">
        <path
           d="m 1208.33,16300 -142.93,-418.3 -142.943,-418.2 551.013,45.3 551.01,45.2 -408.07,373 -408.08,373"
           style="fill:#004bd9;fill-opacity:1;fill-rule:evenodd;stroke:none"
           id="path1740" />
      </g>
      <g
         id="g1742"
         transform="scale(1.91986)"
         style="fill:#004bd9;fill-opacity:1;stroke:none">
        <path
           d="m 1866.58,15963.5 194.28,336.5 h -256.89 c 16.55,-109.2 37.42,-221.3 62.61,-336.5"
           style="fill:#004bd9;fill-opacity:1;fill-rule:evenodd;stroke:none"
           id="path1744" />
      </g>
      <g
         id="g1746"
         transform="scale(2.24795)"
         style="fill:#004bd9;fill-opacity:1;stroke:none">
        <path
           d="m 1381.31,15925.6 52.45,374.4 c -118.19,-45.2 -235.84,-92 -353.26,-139.5 l 300.81,-234.9"
           style="fill:#004bd9;fill-opacity:1;fill-rule:evenodd;stroke:none"
           id="path1748" />
      </g>
      <g
         id="g1750"
         transform="scale(2.14831)"
         style="fill:#004bd9;fill-opacity:1;stroke:none">
        <path
           d="m 2290.25,16300 -152.22,-217.9 -152.22,-217.8 325.91,-65.6 325.9,-65.6 -173.69,283.4 -173.68,283.5"
           style="fill:#004bd9;fill-opacity:1;fill-rule:evenodd;stroke:none"
           id="path1752" />
      </g>
      <g
         id="g1754"
         transform="scale(2.33223)"
         style="fill:#004bd9;fill-opacity:1;stroke:none">
        <path
           d="M 2111.18,15984.5 H 2479 l -182.19,315.5 c -62.99,-104.5 -124.62,-209.8 -185.63,-315.5"
           style="fill:#004bd9;fill-opacity:1;fill-rule:evenodd;stroke:none"
           id="path1756" />
      </g>
      <g
         id="g1758"
         transform="scale(2.30427)"
         style="fill:#004bd9;fill-opacity:1;stroke:none">
        <path
           d="m 1765.29,15971.1 195.79,312.5 c -123.27,6.8 -246.67,12 -370.17,16.4 l 174.38,-328.9"
           style="fill:#004bd9;fill-opacity:1;fill-rule:evenodd;stroke:none"
           id="path1760" />
      </g>
      <g
         id="g1762"
         transform="scale(2.22014)"
         style="fill:#004bd9;fill-opacity:1;stroke:none">
        <path
           d="m 862.637,16300 -109.089,-156.1 -109.074,-156.2 233.548,-47 233.548,-47 -124.464,203.2 -124.469,203.1"
           style="fill:#004bd9;fill-opacity:1;fill-rule:evenodd;stroke:none"
           id="path1764" />
      </g>
      <g
         id="g1766"
         transform="scale(2.31348)"
         style="fill:#004bd9;fill-opacity:1;stroke:none">
        <path
           d="m 651.819,16300 27.569,-216.2 27.581,-216.2 234.116,139.7 234.145,139.7 -261.715,76.5 -261.696,76.5"
           style="fill:#004bd9;fill-opacity:1;fill-rule:evenodd;stroke:none"
           id="path1768" />
      </g>
      <g
         id="g1886"
         transform="scale(1.49306)"
         style="fill:#004bd9;fill-opacity:1;stroke:none">
        <path
           d="m 1916.42,16164.2 108.3,-112.5 108.3,-112.5 74.81,180.4 74.82,180.4 -183.12,-67.9 -183.11,-67.9"
           style="fill:#004bd9;fill-opacity:1;fill-rule:evenodd;stroke:none"
           id="path1888" />
      </g>
      <g
         id="g1890"
         transform="scale(1.56549)"
         style="fill:#004bd9;fill-opacity:1;stroke:none">
        <path
           d="m 2346.19,16300 -29.01,-263.7 -29.03,-263.7 202.51,63 202.53,63 -173.5,200.7 -173.5,200.7"
           style="fill:#004bd9;fill-opacity:1;fill-rule:evenodd;stroke:none"
           id="path1892" />
      </g>
      <g
         id="g2106"
         transform="scale(2.35008)"
         style="fill:#004bd9;fill-opacity:1;stroke:none">
        <path
           d="m 3555.87,15883.3 240.62,416.7 c -134.14,-14.5 -284.24,-34.4 -447.12,-59 l 206.5,-357.7"
           style="fill:#004bd9;fill-opacity:1;fill-rule:evenodd;stroke:none"
           id="path2108" />
      </g>
      <g
         id="g2110"
         transform="scale(2.40515)"
         style="fill:#004bd9;fill-opacity:1;stroke:none">
        <path
           d="m 3491.98,16028.5 239.01,72.7 -212.64,198.8 c -9.84,-81 -18.61,-172.2 -26.37,-271.5"
           style="fill:#004bd9;fill-opacity:1;fill-rule:evenodd;stroke:none"
           id="path2112" />
      </g>
      <g
         id="g2114"
         transform="scale(2.41193)"
         style="fill:#004bd9;fill-opacity:1;stroke:none">
        <path
           d="m 2228.56,15998.1 443.38,-169.8 c -22.01,157.4 -46.1,314.6 -71.17,471.7 l -372.21,-301.9"
           style="fill:#004bd9;fill-opacity:1;fill-rule:evenodd;stroke:none"
           id="path2116" />
      </g>
      <g
         id="g2118"
         transform="scale(2.41059)"
         style="fill:#004bd9;fill-opacity:1;stroke:none">
        <path
           d="m 637.967,16108.1 237.283,-243.9 237.27,-243.9 17.29,339.8 17.31,339.9 -254.577,-95.9 -254.576,-96"
           style="fill:#004bd9;fill-opacity:1;fill-rule:evenodd;stroke:none"
           id="path2120" />
      </g>
      <g
         id="g2122"
         transform="scale(2.41284)"
         style="fill:#004bd9;fill-opacity:1;stroke:none">
        <path
           d="m 1806.68,15732.7 337.66,539 c -212.61,11.7 -425.43,20.7 -638.41,28.3 l 300.75,-567.3"
           style="fill:#004bd9;fill-opacity:1;fill-rule:evenodd;stroke:none"
           id="path2124" />
      </g>
      <g
         id="g2126"
         transform="scale(2.34922)"
         style="fill:#004bd9;fill-opacity:1;stroke:none">
        <path
           d="m 2783.8,15914.9 468.39,86 c -96.95,91.8 -208.28,192.2 -331.35,299.1 l -137.04,-385.1"
           style="fill:#004bd9;fill-opacity:1;fill-rule:evenodd;stroke:none"
           id="path2128" />
      </g>
      <g
         id="g2130"
         transform="scale(2.35801)"
         style="fill:#004bd9;fill-opacity:1;stroke:none">
        <path
           d="m 1289.16,16056.7 261.9,28.5 c -50.75,72.1 -102.45,143.6 -154.62,214.8 l -107.28,-243.3"
           style="fill:#004bd9;fill-opacity:1;fill-rule:evenodd;stroke:none"
           id="path2132" />
      </g>
    </g>
  </g>
</svg>
