<?xml version="1.0" encoding="UTF-8" standalone="no"?>
<!-- Created with Inkscape (http://www.inkscape.org/) -->

<svg
   width="1000"
   height="1000"
   viewBox="0 0 264.58333 264.58334"
   version="1.1"
   id="svg2279"
   xmlns="http://www.w3.org/2000/svg"
   xmlns:svg="http://www.w3.org/2000/svg">
  <defs
     id="defs2276" />
  <g
     id="layer1"
     style="stroke:none">
    <g
       id="g6594"
       transform="matrix(-0.80217413,0,0,0.80217413,248.83123,19.229578)"
       style="stroke:none">
      <path
         style="fill:#ffffff;stroke:none;stroke-width:0.264583px;stroke-linecap:butt;stroke-linejoin:miter;stroke-opacity:1"
         d="M 18.257605,1.355368 -3.7639789,276.56221 271.05681,304.00947 284.76577,-21.241093 Z"
         id="path6210" />
      <g
         id="g5132"
         transform="matrix(0.01302786,0,0,-0.01302786,-203.22157,522.66525)"
         style="fill:#004bd9;fill-opacity:1;stroke:none">
        <g
           id="g1066"
           transform="scale(1.57206)"
           style="fill:#004bd9;fill-opacity:1;stroke:none">
          <path
             d="m 16175.8,14898.5 -31.4,-196.9 99.2,-72.8 56.4,72.8 c -11.8,79.2 -19.1,155.2 -23.1,229.7 l -101.1,-32.8"
             style="fill:#004bd9;fill-opacity:1;fill-rule:evenodd;stroke:none"
             id="path1068" />
        </g>
        <g
           id="g1070"
           transform="scale(1.55705)"
           style="fill:#004bd9;fill-opacity:1;stroke:none">
          <path
             d="m 15778.8,14843.3 c 10.6,-112.3 16.6,-223.7 16.6,-333.9 0,-171.7 -6,-269.4 -20.8,-296 -50.3,-118.5 -189.5,-248.6 -414.3,-393.7 -63.4,-40.3 -132.3,-75 -209.5,-106.8 l 3.4,-212.7 198,-136.1 c 34.9,0.5 66.5,1.5 95.4,3 l 577.1,604.9 275.3,871.3 -302.8,150.6 -218.4,-150.6"
             style="fill:#004bd9;fill-opacity:1;fill-rule:evenodd;stroke:none"
             id="path1072" />
        </g>
        <g
           id="g1074"
           transform="scale(1.71602)"
           style="fill:#004bd9;fill-opacity:1;stroke:none">
          <path
             d="m 14960,16188.8 -170,111.2 -491.4,-514 -263.2,-792.9 c 6.2,-36.2 12.9,-72.6 19.8,-108.9 l 649,-159 221.6,159 c -7.5,61.3 -17.4,130.1 -29.6,207 -29.5,185.3 -45.7,325 -45.7,419 0,59.7 45.2,207.4 135.6,450.1 l -26.1,228.5"
             style="fill:#004bd9;fill-opacity:1;fill-rule:evenodd;stroke:none"
             id="path1076" />
        </g>
        <g
           id="g1078"
           transform="scale(1.86508)"
           style="fill:#004bd9;fill-opacity:1;stroke:none">
          <path
             d="m 14360.1,16300 -615.9,-511 -136.2,-791.7 156.4,-102.4 125.7,102.4 c 30,111.2 48.4,209.6 55.3,296.5 l 32.1,279.2 c 66.7,-98.8 187.9,-148.2 363.3,-148.2 123.3,0 294.1,7.3 512.4,21 l -111.2,501.1 -381.9,353.1"
             style="fill:#004bd9;fill-opacity:1;fill-rule:evenodd;stroke:none"
             id="path1080" />
        </g>
        <g
           id="g1082"
           transform="scale(1.87834)"
           style="fill:#004bd9;fill-opacity:1;stroke:none">
          <path
             d="m 15641.9,15993.7 -414,-249.4 56.2,-370.5 c 390.2,24.6 645,24.6 951.6,-26.1 l 64.3,289.2 -414.1,316.7 c -79.7,14.3 -162.4,27.9 -244,40.1"
             style="fill:#004bd9;fill-opacity:1;fill-rule:evenodd;stroke:none"
             id="path1084" />
        </g>
        <g
           id="g1086"
           transform="scale(2.03176)"
           style="fill:#004bd9;fill-opacity:1;stroke:none">
          <path
             d="m 16289,14364.9 -16.5,259.7 -328.8,338.2 -409.6,-611.4 -92.1,-257.7 c 63.2,-16.4 130.2,-34.5 202,-54.6 29.4,-11.4 83.9,-36.3 158.8,-77.1 74.9,-38.6 133.8,-59 174.6,-59 140.7,0 211,83.9 211,256.4 0,60.7 -10.9,115.1 -32.6,163.2 50,1.4 98.3,9.4 144.2,23.1 l -11,19.2"
             style="fill:#004bd9;fill-opacity:1;fill-rule:evenodd;stroke:none"
             id="path1088" />
        </g>
        <g
           id="g1090"
           transform="scale(2.00763)"
           style="fill:#004bd9;fill-opacity:1;stroke:none">
          <path
             d="m 15734.9,15963.4 -228.5,268.5 c -45.2,24.5 -74.7,43 -87.7,56 l -12.5,12.1 -221,-52.6 51.9,-240.3 c 10.2,-42.2 60.2,-122.1 151.7,-238.1 0,-82.6 59.7,-144.6 183.7,-183.6 39,-11.5 66.6,-16.1 75.7,-16.1 20.8,0 55.1,43.7 108,130.9 10.6,17.9 20.2,34.4 28.5,49.6 l -49.8,213.6"
             style="fill:#004bd9;fill-opacity:1;fill-rule:evenodd;stroke:none"
             id="path1092" />
        </g>
        <g
           id="g1094"
           transform="scale(1.98735)"
           style="fill:#004bd9;fill-opacity:1;stroke:none">
          <path
             d="m 16106.8,15631.7 c -91.8,-86.7 -155,-203.5 -173.7,-334.6 l 146.1,-96 220.8,96 -29.8,267 -163.4,67.6"
             style="fill:#004bd9;fill-opacity:1;fill-rule:evenodd;stroke:none"
             id="path1096" />
        </g>
        <g
           id="g1098"
           transform="scale(2.1138)"
           style="fill:#004bd9;fill-opacity:1;stroke:none">
          <path
             d="m 13464.6,16292 73.1,-407.7 c 62.9,-65.8 135.9,-140.7 219.1,-224.8 69.4,-35.1 151.5,-77.8 246.4,-128.1 l 350.3,-98 226.5,98 -802.3,768.6 -313.1,-8"
             style="fill:#004bd9;fill-opacity:1;fill-rule:evenodd;stroke:none"
             id="path1100" />
        </g>
        <g
           id="g1102"
           transform="scale(1.98314)"
           style="fill:#004bd9;fill-opacity:1;stroke:none">
          <path
             d="m 13699.3,16030.2 -194.1,-700.6 259.2,-203.5 223.6,203.5 c 14.5,63.3 36,142.8 63.9,239.1 55.8,190.6 85.9,332.4 85.9,425.3 0,114.7 -23,203.6 -72.4,306 l -366.1,-269.8"
             style="fill:#004bd9;fill-opacity:1;fill-rule:evenodd;stroke:none"
             id="path1104" />
        </g>
        <g
           id="g1106"
           transform="scale(2.01413)"
           style="fill:#004bd9;fill-opacity:1;stroke:none">
          <path
             d="m 12252.7,15696.9 -133.3,-230.9 c -22.4,-131.9 -43.1,-256 -61.9,-372.3 l 575.9,-325 664,325 9.2,874 -705.7,332.3 -348.2,-603.1"
             style="fill:#004bd9;fill-opacity:1;fill-rule:evenodd;stroke:none"
             id="path1108" />
        </g>
        <g
           id="g1110"
           transform="scale(2.16319)"
           style="fill:#004bd9;fill-opacity:1;stroke:none">
          <path
             d="m 11084.1,16300 -157.1,-33 22.7,-199.8 364.6,-890.4 h 418.3 l -248.6,929.8 -399.9,193.4"
             style="fill:#004bd9;fill-opacity:1;fill-rule:evenodd;stroke:none"
             id="path1112" />
        </g>
        <g
           id="g1114"
           transform="scale(2.16319)"
           style="fill:#004bd9;fill-opacity:1;stroke:none">
          <path
             d="m 12658.3,16114 -277.2,186 -485.6,-400.2 -162.9,-723 668.7,-232 383.2,232 c -44.1,130.6 -65.6,308.5 -66.3,539.3 l -59.9,397.9"
             style="fill:#004bd9;fill-opacity:1;fill-rule:evenodd;stroke:none"
             id="path1116" />
        </g>
        <g
           id="g1118"
           transform="scale(2.32563)"
           style="fill:#004bd9;fill-opacity:1;stroke:none">
          <path
             d="m 11829.9,15793 c -97.2,122.9 -228,184.3 -396.5,184.3 l -289.3,-25.7 -27.8,65.4 c 199.7,0 121.8,67.1 139.8,189.2 l -142.4,93.8 -200.6,-93.8 137.4,-658.4 465.8,-386.3 367,297.3 -23.7,297.3 -29.7,36.9"
             style="fill:#004bd9;fill-opacity:1;fill-rule:evenodd;stroke:none"
             id="path1120" />
        </g>
        <g
           id="g1122"
           transform="scale(2.44361)"
           style="fill:#004bd9;fill-opacity:1;stroke:none">
          <path
             d="m 10442,16300 c -228.4,0 -374.4,-70.6 -439,-212.5 l 73.9,-367.5 309.3,-296.3 322.7,309.7 83.9,394.6 c -61.4,114.8 -178.4,172 -350.8,172"
             style="fill:#004bd9;fill-opacity:1;fill-rule:evenodd;stroke:none"
             id="path1124" />
        </g>
        <g
           id="g1126"
           transform="scale(2.3273)"
           style="fill:#004bd9;fill-opacity:1;stroke:none">
          <path
             d="m 10562.7,16194.5 c -15.7,-131 -69.2,-209.9 -159.4,-234.5 -110.9,-31.7 -231.7,-59.5 -364.5,-87.2 -39.72,-15.4 -77.4,-38.5 -113.15,-69.4 l 9.88,-276.1 366.97,-376.7 399.8,428.2 203,615.7 -219.1,105.5 -123.5,-105.5"
             style="fill:#004bd9;fill-opacity:1;fill-rule:evenodd;stroke:none"
             id="path1128" />
        </g>
        <g
           id="g1430"
           transform="scale(2.0809)"
           style="fill:#004bd9;fill-opacity:1;stroke:none">
          <path
             d="m 15834.9,15073.1 -190.4,-122.9 -77.3,-340.7 320.3,-57.7 412.5,57.7 c -34.4,240.1 -224.7,429.9 -465.1,463.6"
             style="fill:#004bd9;fill-opacity:1;fill-rule:evenodd;stroke:none"
             id="path1432" />
        </g>
        <g
           id="g1434"
           transform="scale(1.99924)"
           style="fill:#004bd9;fill-opacity:1;stroke:none">
          <path
             d="m 15667.9,16250.2 c -37.6,18.8 -69.8,35.3 -96.4,49.8 l 279.4,-484.1 c 31.7,57.2 47.5,95.1 47.5,111.5 0,20.8 -16.2,76.1 -46.2,168.4 -20.7,50.7 -83,101.4 -184.3,154.4"
             style="fill:#004bd9;fill-opacity:1;fill-rule:evenodd;stroke:none"
             id="path1436" />
        </g>
        <g
           id="g1438"
           transform="scale(2.02152)"
           style="fill:#004bd9;fill-opacity:1;stroke:none">
          <path
             d="m 15834.5,15367.5 190,-328.9 275.5,477.2 c -25.7,3.6 -52,5.5 -78.8,5.5 -149.7,0 -285.8,-58.5 -386.7,-153.8"
             style="fill:#004bd9;fill-opacity:1;fill-rule:evenodd;stroke:none"
             id="path1440" />
        </g>
        <g
           id="g1442"
           transform="scale(2.01413)"
           style="fill:#004bd9;fill-opacity:1;stroke:none">
          <path
             d="m 14696.1,16300 c 122.5,-64.9 265.1,-142.1 428,-231.7 41.1,-29.8 61.8,-64.1 61.8,-98.4 0,-4.2 0.6,-9 2,-14.4 l 168.5,291.9 -54.9,52.6 h -605.4"
             style="fill:#004bd9;fill-opacity:1;fill-rule:evenodd;stroke:none"
             id="path1444" />
        </g>
        <g
           id="g1446"
           transform="scale(2.1826)"
           style="fill:#004bd9;fill-opacity:1;stroke:none">
          <path
             d="m 13053.2,16155.1 -274.4,144.9 -507.8,-144.9 334.2,-578.8 -0.1,250.7 c 76,-35.9 175.3,-107.8 295.7,-211.2 46.1,-56.4 116.4,-133.8 210.2,-232.2 l 124.1,214.9 108.3,187.7 -117.4,112.5 c -37.5,36.2 -95.1,121.6 -172.8,256.4"
             style="fill:#004bd9;fill-opacity:1;fill-rule:evenodd;stroke:none"
             id="path1448" />
        </g>
        <g
           id="g1450"
           transform="scale(2.01413)"
           style="fill:#004bd9;fill-opacity:1;stroke:none">
          <path
             d="m 13730.6,16300 h -433.2 -696.5 l 348.2,-603.1 348.3,-603.2 348.2,603.2 203.4,352.3 -111.8,232 -6.6,18.8"
             style="fill:#004bd9;fill-opacity:1;fill-rule:evenodd;stroke:none"
             id="path1452" />
        </g>
        <g
           id="g1454"
           transform="scale(2.24803)"
           style="fill:#004bd9;fill-opacity:1;stroke:none">
          <path
             d="m 12269,16300 -43.2,-74.7 -311.9,-540.4 h 623.9 135.5 c -39.3,68.1 -83.8,149.2 -133.7,243.2 -42,76.5 -132.3,199.3 -270.6,371.9"
             style="fill:#004bd9;fill-opacity:1;fill-rule:evenodd;stroke:none"
             id="path1456" />
        </g>
        <g
           id="g1458"
           transform="scale(2.17725)"
           style="fill:#004bd9;fill-opacity:1;stroke:none">
          <path
             d="m 11012.5,16194.8 322.2,-558 322.2,-558 322.1,558 322.2,558 -664.3,105.2 -624.4,-105.2"
             style="fill:#004bd9;fill-opacity:1;fill-rule:evenodd;stroke:none"
             id="path1460" />
        </g>
        <g
           id="g1462"
           transform="scale(1.99947)"
           style="fill:#004bd9;fill-opacity:1;stroke:none">
          <path
             d="m 12011,15459.9 134.3,232.5 350.7,607.6 h -452.5 l -32.5,-840.1"
             style="fill:#004bd9;fill-opacity:1;fill-rule:evenodd;stroke:none"
             id="path1464" />
        </g>
        <g
           id="g1466"
           transform="scale(2.41783)"
           style="fill:#004bd9;fill-opacity:1;stroke:none">
          <path
             d="m 10949.7,16173.7 c -8.4,47.8 -22.3,89.9 -41.8,126.3 l -120.8,-209.3 -290.1,-502.5 h 329.9 c 3.5,23.9 10.9,50 25.1,78.2 55,109.1 162.4,-49.3 88.2,184 -33.7,129.9 36.8,166.9 9.5,323.3"
             style="fill:#004bd9;fill-opacity:1;fill-rule:evenodd;stroke:none"
             id="path1468" />
        </g>
        <g
           id="g1470"
           transform="scale(2.31225)"
           style="fill:#004bd9;fill-opacity:1;stroke:none">
          <path
             d="m 10976.3,16300 -303.4,-525.4 -303.3,-525.3 h 606.7 606.7 l -303.4,525.3 -303.3,525.4"
             style="fill:#004bd9;fill-opacity:1;fill-rule:evenodd;stroke:none"
             id="path1472" />
        </g>
        <g
           id="g1474"
           transform="scale(2.18795)"
           style="fill:#004bd9;fill-opacity:1;stroke:none">
          <path
             d="m 10230.4,16115.5 -127.3,-550.5 c -12.1,-30.9 -27.6,-66 -47,-107.1 l 163.5,-283.2 c 59.4,97.7 137.1,124 243.6,325.1 73.8,103.2 202.4,237.9 314,471.7 15.3,-26.3 31.5,-55.1 48.6,-86.1 l 132.8,230.1 -481.5,184.5 -246.7,-184.5"
             style="fill:#004bd9;fill-opacity:1;fill-rule:evenodd;stroke:none"
             id="path1476" />
        </g>
        <g
           id="g1478"
           transform="scale(2.01564)"
           style="fill:#004bd9;fill-opacity:1;stroke:none">
          <path
             d="m 10392.9,15964.9 c 0,-29.8 20.5,-45.8 41.1,-45.8 -20.6,0 34.3,54.9 166.9,166.9 42.9,29.8 337.9,214 205.9,45.8 -25.2,-29.8 -39,-50.3 -39,-59.4 11.5,-20.6 25.2,-32.1 45.8,-32.1 61.7,0 121.2,45.7 176.1,137.3 l 36.8,110.3 h -470.7 c -87.5,-119.5 -162.9,-255.3 -162.9,-323"
             style="fill:#004bd9;fill-opacity:1;fill-rule:evenodd;stroke:none"
             id="path1480" />
        </g>
        <g
           id="g1482"
           transform="scale(2.41175)"
           style="fill:#004bd9;fill-opacity:1;stroke:none">
          <path
             d="m 10135.2,16300 c -25.9,-57 -38.9,-125.4 -38.9,-205.1 0,-76.4 17.3,-152.9 49.7,-229.4 34.4,-76.4 51.7,-128 51.7,-152.9 0,-30.5 -1.7,-58.9 -4.8,-85.1 h 330.5 l -290.8,503.8 -97.4,168.7"
             style="fill:#004bd9;fill-opacity:1;fill-rule:evenodd;stroke:none"
             id="path1484" />
        </g>
        <g
           id="g1486"
           transform="scale(2.2564)"
           style="fill:#004bd9;fill-opacity:1;stroke:none">
          <path
             d="m 10237.6,16300 c -110.3,-95.1 -202.5,-261.7 -277.53,-500.4 l -39.97,-172.9 h 84.5 621.6 l -310.8,538.4 -77.8,134.9"
             style="fill:#004bd9;fill-opacity:1;fill-rule:evenodd;stroke:none"
             id="path1488" />
        </g>
        <g
           id="g1490"
           transform="scale(2.07492)"
           style="fill:#004bd9;fill-opacity:1;stroke:none">
          <path
             d="m 10564.6,16219.5 c -28.9,-39.9 -68.8,-104.4 -117.7,-193.2 -51.7,-31.6 -125.8,-112.8 -192.7,-203.8 h 457.2 l 52.3,156.4 c 4.1,7.9 8.3,15.3 12.6,22.4 l -172.4,298.7 c -11.7,-24.7 -24.8,-51.4 -39.3,-80.5"
             style="fill:#004bd9;fill-opacity:1;fill-rule:evenodd;stroke:none"
             id="path1492" />
        </g>
        <g
           id="g1494"
           transform="scale(2.08161)"
           style="fill:#004bd9;fill-opacity:1;stroke:none">
          <path
             d="m 16235.8,14604.5 h -673.9 l 337,-583.6 10.8,-18.7 c 225.7,67.3 390.3,276.5 390.3,524.1 0,26.6 -1.9,52.7 -5.6,78.2 h -58.6"
             style="fill:#004bd9;fill-opacity:1;fill-rule:evenodd;stroke:none"
             id="path1496" />
        </g>
        <g
           id="g1498"
           transform="scale(1.98735)"
           style="fill:#004bd9;fill-opacity:1;stroke:none">
          <path
             d="m 15927.3,15215.3 c 0,-111.9 32,-216.3 87.5,-304.4 -71.8,8.3 -150.8,12.4 -237,12.4 -125.2,0 -227.3,16.3 -310.8,46.5 -87.3,35 -260.4,74.1 -452.5,108.7 l 226.8,-392.6 103.9,-180 c 131.6,-21.7 273.4,-53.4 441.9,-97.2 l 160,277.2 352.9,611.2 h -366.9 c -3.8,-26.7 -5.8,-54 -5.8,-81.8"
             style="fill:#004bd9;fill-opacity:1;fill-rule:evenodd;stroke:none"
             id="path1500" />
        </g>
        <g
           id="g1502"
           transform="scale(1.58335)"
           style="fill:#004bd9;fill-opacity:1;stroke:none">
          <path
             d="m 16183.7,14596.8 h -154.5 l 270.8,-469 -1.3,3.8 c -58,172.1 -93.8,323.8 -115,465.2"
             style="fill:#004bd9;fill-opacity:1;fill-rule:evenodd;stroke:none"
             id="path1504" />
        </g>
        <g
           id="g1506"
           transform="scale(1.86508)"
           style="fill:#004bd9;fill-opacity:1;stroke:none">
          <path
             d="m 14849.9,16148.9 c 0,33.4 8.1,83.6 23.6,151.1 h -513.4 l 376,-651.3 117.1,-202.9 c 92.6,5.9 193.6,12.9 303.2,21 84.4,6.2 162.7,11.7 236.4,16.4 l 95.5,165.5 264.9,458.7 c -232.5,34.8 -455.5,58.8 -572.1,58.8 -98.8,0 -210.1,-4.9 -331.2,-17.3"
             style="fill:#004bd9;fill-opacity:1;fill-rule:evenodd;stroke:none"
             id="path1508" />
        </g>
        <g
           id="g1510"
           transform="scale(1.71602)"
           style="fill:#004bd9;fill-opacity:1;stroke:none">
          <path
             d="m 14986.1,15960.3 9.5,25.4 c 41.5,114 75.2,218.5 101,314.3 H 14790 l 196.1,-339.7"
             style="fill:#004bd9;fill-opacity:1;fill-rule:evenodd;stroke:none"
             id="path1512" />
        </g>
        <g
           id="g1514"
           transform="scale(1.57303)"
           style="fill:#004bd9;fill-opacity:1;stroke:none">
          <path
             d="m 16282.5,16237.1 h -949.7 c 14.8,-79.1 30.9,-158.6 47.5,-238.6 l 308.2,-533.6 445.9,-772.4 132.4,229.5 c -17.7,338.3 33.2,644.9 33.2,1080.9 0,61.8 -6,139.6 -17.5,234.2"
             style="fill:#004bd9;fill-opacity:1;fill-rule:evenodd;stroke:none"
             id="path1516" />
        </g>
        <g
           id="g1518"
           transform="scale(1.59736)"
           style="fill:#004bd9;fill-opacity:1;stroke:none">
          <path
             d="m 15888.7,14468.8 -439.1,-760.5 -391.8,-678.5 c 277.5,14.2 299.3,75.4 590,169.9 115.4,40.3 242.5,72.2 383.8,98.1 178.9,37.6 268.4,115.4 268.4,230.9 0,37.3 -45.8,197.6 -142.9,475.3 l -268.4,464.8"
             style="fill:#004bd9;fill-opacity:1;fill-rule:evenodd;stroke:none"
             id="path1520" />
        </g>
        <g
           id="g1522"
           transform="scale(1.86508)"
           style="fill:#004bd9;fill-opacity:1;stroke:none">
          <path
             d="m 13021.1,16300 c -12.6,-78.1 -24.5,-152.9 -35.7,-224.4 l 246.5,-426.9 376.1,-651.4 376,651.4 376.1,651.3 h -752.1 -586.9"
             style="fill:#004bd9;fill-opacity:1;fill-rule:evenodd;stroke:none"
             id="path1524" />
        </g>
        <g
           id="g1526"
           transform="scale(1.71602)"
           style="fill:#004bd9;fill-opacity:1;stroke:none">
          <path
             d="m 13937.3,15966.8 c -24.2,-147.7 -35,-257.8 -35,-330.4 0,-59.1 18.9,-142.3 53.7,-249.8 35,-107.4 53.8,-185.2 53.8,-233.6 7.6,-53 16.2,-106.4 25.6,-159.9 l 345.9,599 408.7,707.9 h -815.3 c -1.6,-81.9 -14.8,-192.1 -37.4,-333.2"
             style="fill:#004bd9;fill-opacity:1;fill-rule:evenodd;stroke:none"
             id="path1528" />
        </g>
        <g
           id="g1530"
           transform="scale(1.55705)"
           style="fill:#004bd9;fill-opacity:1;stroke:none">
          <path
             d="m 15778.8,14843.3 h 521.2 l -761.8,1319.5 c 91,-437.5 199.7,-885.1 240.6,-1319.5"
             style="fill:#004bd9;fill-opacity:1;fill-rule:evenodd;stroke:none"
             id="path1532" />
        </g>
        <g
           id="g1534"
           transform="scale(1.46651)"
           style="fill:#004bd9;fill-opacity:1;stroke:none">
          <path
             d="m 16079,14556.5 c -84.8,-34.5 -125.7,-88 -125.7,-157.1 0,-138.3 97.5,-210.6 292.4,-210.6 18.9,0 37,0.1 54.3,0.4 l -213.8,370.3 -7.2,-3"
             style="fill:#004bd9;fill-opacity:1;fill-rule:evenodd;stroke:none"
             id="path1536" />
        </g>
        <g
           id="g1538"
           transform="scale(1.84989)"
           style="fill:#004bd9;fill-opacity:1;stroke:none">
          <path
             d="m 12787.1,15212.8 h 756.3 l -627.7,1087.2 -128.6,-1087.2"
             style="fill:#004bd9;fill-opacity:1;fill-rule:evenodd;stroke:none"
             id="path1540" />
        </g>
        <g
           id="g1770"
           transform="scale(1.87149)"
           style="fill:#004bd9;fill-opacity:1;stroke:none">
          <path
             d="m 10868.7,15977.4 249.5,-249.4 249.4,-249.4 161.3,410.7 161.3,410.7 -410.7,-161.3 -410.8,-161.3"
             style="fill:#004bd9;fill-opacity:1;fill-rule:evenodd;stroke:none"
             id="path1772" />
        </g>
        <g
           id="g1774"
           transform="scale(2.04233)"
           style="fill:#004bd9;fill-opacity:1;stroke:none">
          <path
             d="m 10168,16087.5 122.6,212.5 h -402.7 c 87.89,-92.7 182.3,-167.5 280.1,-212.5"
             style="fill:#004bd9;fill-opacity:1;fill-rule:evenodd;stroke:none"
             id="path1776" />
        </g>
        <g
           id="g1778"
           transform="scale(2.00326)"
           style="fill:#004bd9;fill-opacity:1;stroke:none">
          <path
             d="m 10074.4,16104.6 c 60.3,-27.7 122,-43.1 184.3,-43.1 21.3,0 42.5,1.4 63.9,4.1 l -135.4,234.4 -112.8,-195.4"
             style="fill:#004bd9;fill-opacity:1;fill-rule:evenodd;stroke:none"
             id="path1780" />
        </g>
        <g
           id="g1782"
           transform="scale(2.20828)"
           style="fill:#004bd9;fill-opacity:1;stroke:none">
          <path
             d="m 9858.11,16126.1 h 202.69 l -100.4,173.9 c -34.68,-57.6 -68.69,-115.6 -102.29,-173.9"
             style="fill:#004bd9;fill-opacity:1;fill-rule:evenodd;stroke:none"
             id="path1784" />
        </g>
        <g
           id="g1786"
           transform="scale(2.03104)"
           style="fill:#004bd9;fill-opacity:1;stroke:none">
          <path
             d="m 11158.2,16300 c -35.7,-109 -54,-223 -54,-342.6 0,-191.3 26.9,-401 80.4,-629.2 h 534.7 l -345.4,598.2 -215.7,373.6"
             style="fill:#004bd9;fill-opacity:1;fill-rule:evenodd;stroke:none"
             id="path1788" />
        </g>
        <g
           id="g1790"
           transform="scale(2.33886)"
           style="fill:#004bd9;fill-opacity:1;stroke:none">
          <path
             d="m 10173.1,16090.7 120.8,209.3 c -67.4,-7.3 -142.7,-17.3 -224.5,-29.6 l 103.7,-179.7"
             style="fill:#004bd9;fill-opacity:1;fill-rule:evenodd;stroke:none"
             id="path1792" />
        </g>
        <g
           id="g1794"
           transform="scale(1.65336)"
           style="fill:#004bd9;fill-opacity:1;stroke:none">
          <path
             d="m 12774.7,15559 3.6,6.3 424.3,734.7 h -656.8 c 54.2,-231.4 130.6,-478.4 228.9,-741"
             style="fill:#004bd9;fill-opacity:1;fill-rule:evenodd;stroke:none"
             id="path1796" />
        </g>
        <g
           id="g1798"
           transform="scale(1.64767)"
           style="fill:#004bd9;fill-opacity:1;stroke:none">
          <path
             d="m 13501.6,15831.2 h 673.4 l -270.7,468.8 -402.7,-468.8"
             style="fill:#004bd9;fill-opacity:1;fill-rule:evenodd;stroke:none"
             id="path1800" />
        </g>
        <g
           id="g1802"
           transform="scale(2.09908)"
           style="fill:#004bd9;fill-opacity:1;stroke:none">
          <path
             d="m 11166.9,15693.5 h 296.3 L 11113,16300 c 3.8,-192.5 21.8,-394.6 53.9,-606.5"
             style="fill:#004bd9;fill-opacity:1;fill-rule:evenodd;stroke:none"
             id="path1804" />
        </g>
        <g
           id="g1806"
           transform="scale(1.88232)"
           style="fill:#004bd9;fill-opacity:1;stroke:none">
          <path
             d="m 12002.3,15757.9 313.1,542.1 h -414 c 26.7,-176 60.3,-356.6 100.9,-542.1"
             style="fill:#004bd9;fill-opacity:1;fill-rule:evenodd;stroke:none"
             id="path1808" />
        </g>
        <g
           id="g1810"
           transform="scale(1.75807)"
           style="fill:#004bd9;fill-opacity:1;stroke:none">
          <path
             d="m 11690,16300 -194.5,-278.4 -194.5,-278.3 416.5,-83.8 416.4,-83.9 -222,362.2 -221.9,362.2"
             style="fill:#004bd9;fill-opacity:1;fill-rule:evenodd;stroke:none"
             id="path1812" />
        </g>
        <g
           id="g1814"
           transform="scale(1.9495)"
           style="fill:#004bd9;fill-opacity:1;stroke:none">
          <path
             d="m 10330.7,16300 92.6,-289.4 92.5,-289.3 285.5,250.8 285.5,250.7 -378,38.6 -378.1,38.6"
             style="fill:#004bd9;fill-opacity:1;fill-rule:evenodd;stroke:none"
             id="path1816" />
        </g>
        <g
           id="g1818"
           transform="scale(2.17141)"
           style="fill:#004bd9;fill-opacity:1;stroke:none">
          <path
             d="m 9899.37,16300 -93.67,-134.1 -93.67,-134.1 200.56,-40.3 200.61,-40.4 -106.9,174.4 -106.93,174.5"
             style="fill:#004bd9;fill-opacity:1;fill-rule:evenodd;stroke:none"
             id="path1820" />
        </g>
        <g
           id="g1822"
           transform="scale(1.55754)"
           style="fill:#004bd9;fill-opacity:1;stroke:none">
          <path
             d="m 14531.4,16300 -121.2,-354.6 -121.2,-354.6 467.2,38.3 467.2,38.4 -346,316.2 -346,316.3"
             style="fill:#004bd9;fill-opacity:1;fill-rule:evenodd;stroke:none"
             id="path1824" />
        </g>
        <g
           id="g1826"
           transform="scale(1.80518)"
           style="fill:#004bd9;fill-opacity:1;stroke:none">
          <path
             d="m 11945.8,15513 c 355.4,-86.9 725.2,-164.3 1109.8,-232.2 l -786.1,1019.2 -323.7,-787"
             style="fill:#004bd9;fill-opacity:1;fill-rule:evenodd;stroke:none"
             id="path1828" />
        </g>
        <g
           id="g1830"
           transform="scale(1.51725)"
           style="fill:#004bd9;fill-opacity:1;stroke:none">
          <path
             d="m 14087.6,16300 -93.3,-273 -93.3,-273 359.6,29.5 359.7,29.6 -266.3,243.4 -266.4,243.5"
             style="fill:#004bd9;fill-opacity:1;fill-rule:evenodd;stroke:none"
             id="path1832" />
        </g>
        <g
           id="g1834"
           transform="scale(1.48155)"
           style="fill:#004bd9;fill-opacity:1;stroke:none">
          <path
             d="m 14979.2,15981.3 119,-524.1 118.9,-524 541.5,398.4 541.4,398.5 -660.4,125.6 -660.4,125.6"
             style="fill:#004bd9;fill-opacity:1;fill-rule:evenodd;stroke:none"
             id="path1836" />
        </g>
        <g
           id="g1838"
           transform="scale(1.94886)"
           style="fill:#004bd9;fill-opacity:1;stroke:none">
          <path
             d="m 11234.9,15955.2 199.1,344.8 h -263.3 c 17,-111.9 38.4,-226.8 64.2,-344.8"
             style="fill:#004bd9;fill-opacity:1;fill-rule:evenodd;stroke:none"
             id="path1840" />
        </g>
        <g
           id="g1842"
           transform="scale(2.25973)"
           style="fill:#004bd9;fill-opacity:1;stroke:none">
          <path
             d="m 9506.48,15912.6 54.3,387.4 c -122.36,-46.8 -244.1,-95.2 -365.62,-144.4 l 311.32,-243"
             style="fill:#004bd9;fill-opacity:1;fill-rule:evenodd;stroke:none"
             id="path1844" />
        </g>
        <g
           id="g1846"
           transform="scale(2.13361)"
           style="fill:#004bd9;fill-opacity:1;stroke:none">
          <path
             d="m 9771.95,16300 -159.45,-228.2 -159.45,-228.2 341.39,-68.7 341.36,-68.7 -181.95,296.9 -181.9,296.9"
             style="fill:#004bd9;fill-opacity:1;fill-rule:evenodd;stroke:none"
             id="path1848" />
        </g>
        <g
           id="g1850"
           transform="scale(2.34358)"
           style="fill:#004bd9;fill-opacity:1;stroke:none">
          <path
             d="m 9654.09,15973.3 h 380.81 l -188.63,326.7 c -65.19,-108.1 -129.03,-217.2 -192.18,-326.7"
             style="fill:#004bd9;fill-opacity:1;fill-rule:evenodd;stroke:none"
             id="path1852" />
        </g>
        <g
           id="g1854"
           transform="scale(2.32277)"
           style="fill:#004bd9;fill-opacity:1;stroke:none">
          <path
             d="m 9460.72,16062.8 141.21,225.4 c -88.9,4.9 -177.89,8.6 -266.97,11.8 l 125.76,-237.2"
             style="fill:#004bd9;fill-opacity:1;fill-rule:evenodd;stroke:none"
             id="path1856" />
        </g>
        <g
           id="g1858"
           transform="scale(2.2233)"
           style="fill:#004bd9;fill-opacity:1;stroke:none">
          <path
             d="m 9169.98,16300 -113.3,-162.2 -113.3,-162.2 242.61,-48.8 242.61,-48.8 -129.31,211 -129.31,211"
             style="fill:#004bd9;fill-opacity:1;fill-rule:evenodd;stroke:none"
             id="path1860" />
        </g>
        <g
           id="g1862"
           transform="scale(2.33581)"
           style="fill:#004bd9;fill-opacity:1;stroke:none">
          <path
             d="m 8667.02,16300 28.38,-222.8 28.43,-222.8 241.24,144 241.2,143.9 -269.63,78.9 -269.62,78.8"
             style="fill:#004bd9;fill-opacity:1;fill-rule:evenodd;stroke:none"
             id="path1864" />
        </g>
        <g
           id="g1866"
           transform="scale(2.27976)"
           style="fill:#004bd9;fill-opacity:1;stroke:none">
          <path
             d="m 9840.94,16066.6 32.72,233.4 c -73.69,-28.2 -147.03,-57.3 -220.24,-87 l 187.52,-146.4"
             style="fill:#004bd9;fill-opacity:1;fill-rule:evenodd;stroke:none"
             id="path1868" />
        </g>
        <g
           id="g1870"
           transform="scale(1.39479)"
           style="fill:#004bd9;fill-opacity:1;stroke:none">
          <path
             d="m 15650.3,15210.2 265.3,-167.7 265.2,-167.6 59.6,388 59.6,388 -324.9,-220.3 -324.8,-220.4"
             style="fill:#004bd9;fill-opacity:1;fill-rule:evenodd;stroke:none"
             id="path1872" />
        </g>
        <g
           id="g1874"
           transform="scale(1.44052)"
           style="fill:#004bd9;fill-opacity:1;stroke:none">
          <path
             d="m 14339.7,15873.3 256.9,-162.3 256.9,-162.4 57.7,375.7 57.7,375.7 -314.6,-213.3 -314.6,-213.4"
             style="fill:#004bd9;fill-opacity:1;fill-rule:evenodd;stroke:none"
             id="path1876" />
        </g>
        <g
           id="g1878"
           transform="scale(1.33669)"
           style="fill:#004bd9;fill-opacity:1;stroke:none">
          <path
             d="m 15496.4,16027.9 163.7,-103.5 163.8,-103.6 36.8,239.6 36.8,239.6 -200.6,-136.1 -200.5,-136"
             style="fill:#004bd9;fill-opacity:1;fill-rule:evenodd;stroke:none"
             id="path1880" />
        </g>
        <g
           id="g1882"
           transform="scale(1.57279)"
           style="fill:#004bd9;fill-opacity:1;stroke:none">
          <path
             d="m 13002.9,16068.8 139.2,-88 139.2,-88 31.3,203.6 31.2,203.6 -170.4,-115.7 -170.5,-115.5"
             style="fill:#004bd9;fill-opacity:1;fill-rule:evenodd;stroke:none"
             id="path1884" />
        </g>
        <g
           id="g2134"
           transform="scale(2.39464)"
           style="fill:#004bd9;fill-opacity:1;stroke:none">
          <path
             d="m 9813.76,16108.3 c 87.27,-13.2 167.7,-23.8 239.54,-31.6 l -128.88,223.3 -110.66,-191.7"
             style="fill:#004bd9;fill-opacity:1;fill-rule:evenodd;stroke:none"
             id="path2136" />
        </g>
        <g
           id="g2138"
           transform="scale(2.39151)"
           style="fill:#004bd9;fill-opacity:1;stroke:none">
          <path
             d="m 9482.04,15950.3 201.93,349.7 h -407.69 c 67.61,-117.2 135.93,-234 205.76,-349.7"
             style="fill:#004bd9;fill-opacity:1;fill-rule:evenodd;stroke:none"
             id="path2140" />
        </g>
        <g
           id="g2142"
           transform="scale(2.38855)"
           style="fill:#004bd9;fill-opacity:1;stroke:none">
          <path
             d="m 8993.69,16048 c 94.62,3.4 189.15,7.4 283.6,12.6 l -150.01,239.4 -133.59,-252"
             style="fill:#004bd9;fill-opacity:1;fill-rule:evenodd;stroke:none"
             id="path2144" />
        </g>
        <g
           id="g2146"
           transform="scale(2.39489)"
           style="fill:#004bd9;fill-opacity:1;stroke:none">
          <path
             d="m 8684.92,15932.4 218.84,349.3 c -137.79,7.6 -275.71,13.4 -413.71,18.3 l 194.87,-367.6"
             style="fill:#004bd9;fill-opacity:1;fill-rule:evenodd;stroke:none"
             id="path2148" />
        </g>
        <g
           id="g2190"
           transform="scale(1.81615)"
           style="fill:#004bd9;fill-opacity:1;stroke:none">
          <path
             d="m 12740.3,15969.6 190.8,330.4 h -252.2 c 16.2,-107.2 36.7,-217.3 61.4,-330.4"
             style="fill:#004bd9;fill-opacity:1;fill-rule:evenodd;stroke:none"
             id="path2192" />
        </g>
      </g>
    </g>
  </g>
</svg>
