<?xml version="1.0" encoding="UTF-8" standalone="no"?>
<!-- Created with Inkscape (http://www.inkscape.org/) -->

<svg
   width="1000"
   height="1000"
   viewBox="0 0 264.58333 264.58334"
   version="1.1"
   id="svg2279"
   xmlns="http://www.w3.org/2000/svg"
   xmlns:svg="http://www.w3.org/2000/svg">
  <defs
     id="defs2276" />
  <g
     id="layer1"
     style="stroke:none">
    <g
       id="g7930"
       transform="matrix(0.88047007,0,0,0.88047007,19.372775,10.473398)"
       style="stroke:none">
      <path
         style="fill:#ffffff;stroke:none;stroke-width:0.264583px;stroke-linecap:butt;stroke-linejoin:miter;stroke-opacity:1"
         d="M 6.7076031,-3.1492375 -19.820684,281.63961 279.07572,240.29039 273.2913,-5.5851234 Z"
         id="path7624" />
      <g
         id="g6951"
         transform="matrix(0.01365697,0,0,-0.01365697,23.568229,254.4413)"
         style="fill:#004bd9;fill-opacity:1;stroke:none">
        <path
           d="m 1213.89,2437 c -14.61,0 -29.11,-0.2 -43.51,-0.8 l -9.87,-176.9 176.4,-111.5 150.22,102.4 -1.42,155.3 c -86.88,20.8 -177.59,31.5 -271.82,31.5"
           style="fill:#004bd9;fill-opacity:1;fill-rule:evenodd;stroke:none"
           id="path1016" />
        <path
           d="m 444.297,2147.8 c -30.602,-26 -60.586,-53.8 -89.899,-83.1 C 119.531,1830 0,1546.3 0,1209.7 0,889.102 108.324,616.805 321.277,388.801 L 989.906,761.902 1336.91,2147.8 1018.93,2322.3 444.297,2147.8"
           style="fill:#004bd9;fill-opacity:1;fill-rule:evenodd;stroke:none"
           id="path1018" />
        <path
           d="m 6730.63,6818.8 456.04,-1135 435.71,-409.5 c 46.68,79 96.45,161.1 149.2,246.6 244.14,269.8 566.77,701.1 960.25,1297.9 l -609.07,261.8 -1392.13,-261.8"
           style="fill:#004bd9;fill-opacity:1;fill-rule:evenodd;stroke:none"
           id="path1020" />
        <path
           d="m 4733.96,6818.8 c -27.51,-236.8 1.58,-452.4 82.22,-646.69 97.52,-234.91 296.85,-354.41 589.33,-354.41 578.48,0 805.22,102.4 804.93,100.2 l 510.2,230.1 9.99,670.8 -1261.2,403.7 -735.47,-403.7"
           style="fill:#004bd9;fill-opacity:1;fill-rule:evenodd;stroke:none"
           id="path1022" />
        <path
           d="m 8862.26,9590.8 -783.14,-436.4 150.56,-1473.1 804.49,-181.2 c 240.63,615.8 359.01,1088.3 359.01,1419.1 0,78.4 -3.47,156.8 -10.82,235.2 l -520.1,436.4"
           style="fill:#004bd9;fill-opacity:1;fill-rule:evenodd;stroke:none"
           id="path1024" />
        <path
           d="m 5382.14,9154.4 303.36,-1429.6 1045.13,-906 1176.02,731.5 172.47,1604.1 -1348.49,720 -1348.49,-720"
           style="fill:#004bd9;fill-opacity:1;fill-rule:evenodd;stroke:none"
           id="path1026" />
        <path
           d="m 6730.63,11489.9 445.11,-1462.3 903.38,-873.2 946.84,818.7 388.96,1516.8 -1412.16,261.8 -1272.13,-261.8"
           style="fill:#004bd9;fill-opacity:1;fill-rule:evenodd;stroke:none"
           id="path1028" />
        <path
           d="m 5621.45,11489.9 -239.31,-2335.5 1045.17,818.7 534.48,1706.8 -935.87,246.3 -404.47,-436.3"
           style="fill:#004bd9;fill-opacity:1;fill-rule:evenodd;stroke:none"
           id="path1030" />
        <path
           d="M 150.555,10071.2 C 48.6328,9951.61 0,9805.4 0,9628.1 0,9489.9 30.7305,9391.5 92.1758,9334 l 500.0272,515.9 145.512,602.2 -28.852,-26.5 c -137.394,-57.5 -323.441,-177.1 -558.308,-354.4"
           style="fill:#004bd9;fill-opacity:1;fill-rule:evenodd;stroke:none"
           id="path1032" />
        <path
           d="m 1729.45,11489.9 -246.56,-252.9 -93.58,-404.2 393.41,-115.1 c 324.46,256.5 685.69,494.6 1083.96,713.8 29.49,17.2 61.02,36.7 94.83,58.4 l -265.3,447.2 -966.76,-447.2"
           style="fill:#004bd9;fill-opacity:1;fill-rule:evenodd;stroke:none"
           id="path1034" />
        <path
           d="m 8079.12,13825.4 423.24,-1440.4 916.02,-879.3 c 48,219.5 98.69,480.4 152.02,781 l 88.67,1094.3 c 41.15,161.9 119.77,310 235.62,444.4 l -390.84,392.7 -1424.73,-392.7"
           style="fill:#004bd9;fill-opacity:1;fill-rule:evenodd;stroke:none"
           id="path1036" />
        <path
           d="m 5382.14,13825.4 467.03,-1484 881.46,-851.5 1088.72,895.1 543.38,1615 -1632.1,130.8 -1348.49,-305.4"
           style="fill:#004bd9;fill-opacity:1;fill-rule:evenodd;stroke:none"
           id="path1038" />
        <path
           d="m 4058.43,13825.4 c -279.61,-336.9 -538.73,-593.6 -779.71,-772.2 -30.65,-25.1 -63.62,-53.1 -98.85,-84.3 l -224.01,-791.2 753.47,-125.8 c 83.89,68.8 172.23,142.5 265.04,221.4 340.63,286.3 640.2,509.1 895.98,665.6 l 558.92,446.2 -47.13,440.3 H 4058.43"
           style="fill:#004bd9;fill-opacity:1;fill-rule:evenodd;stroke:none"
           id="path1040" />
        <g
           id="g1042"
           transform="scale(1.00017)"
           style="fill:#004bd9;fill-opacity:1;stroke:none">
          <path
             d="m 15399.2,16300 -580.4,-141.8 4.5,-415 322.2,-150.9 c 437.7,103.4 656.4,280 656.4,533.1 0,10.5 -0.3,21.4 -1,32.8 l -401.7,141.8"
             style="fill:#004bd9;fill-opacity:1;fill-rule:evenodd;stroke:none"
             id="path1044" />
        </g>
        <g
           id="g1046"
           transform="scale(1.01311)"
           style="fill:#004bd9;fill-opacity:1;stroke:none">
          <path
             d="m 14514.9,16015 114.6,-63.2 182.9,150.7 18.2,197.5 c -75.4,-62.4 -168.5,-133.4 -279.2,-213.1 l -36.5,-71.9"
             style="fill:#004bd9;fill-opacity:1;fill-rule:evenodd;stroke:none"
             id="path1048" />
        </g>
        <path
           d="m 14516.6,16160.9 c -226.5,-100.8 -545.2,-152.3 -958.4,-152.3 -748.9,-17.8 -1152,-31.1 -1209.6,-31.1 -29.9,-13.4 -61.6,-26.8 -95.1,-40.2 l 130.5,-856.8 514.3,-260 c 216.4,67.4 456.7,158.1 721.8,270.8 288.9,124.7 541.5,224.5 757.2,300.5 l 385.3,384.6 58.7,384.5 -98.5,49.1 -206.2,-49.1"
           style="fill:#004bd9;fill-opacity:1;fill-rule:evenodd;stroke:none"
           id="path1050" />
        <path
           d="m 11165.5,15623 c -177.2,-17.7 -412.1,-17.7 -708.9,0 -332.3,40 -558.23,62 -677.93,62 -21.46,0 -46.71,-0.3 -75.85,-0.9 l 115.3,-865.5 699.88,-546.4 c 133.1,62.9 280.9,120.3 443.7,172.3 67.2,20.8 135.8,40.5 205.8,58.9 l 817.3,489.7 -55.4,830.1 c -211.6,-66.2 -466.2,-133.2 -763.9,-200.2"
           style="fill:#004bd9;fill-opacity:1;fill-rule:evenodd;stroke:none"
           id="path1052" />
        <g
           id="g1054"
           transform="scale(1.10728)"
           style="fill:#004bd9;fill-opacity:1;stroke:none">
          <path
             d="m 5442.39,15696.9 132.33,-577.8 503.79,-524 707.41,808.4 116.66,619 c -412.9,277.5 -1173.06,51.5 -1460.19,-325.6"
             style="fill:#004bd9;fill-opacity:1;fill-rule:evenodd;stroke:none"
             id="path1056" />
        </g>
        <g
           id="g1058"
           transform="scale(1.01155)"
           style="fill:#004bd9;fill-opacity:1;stroke:none">
          <path
             d="m 5892.96,15976.4 c 48,-226.3 79.56,-364.1 94.67,-413.4 l -175.22,-144.5 c -377.36,-183.6 -725.69,-446.4 -1045.05,-792.5 l 553.35,-958.4 952.34,803.9 380.75,1504.9 -567.68,323.6 -193.16,-323.6"
             style="fill:#004bd9;fill-opacity:1;fill-rule:evenodd;stroke:none"
             id="path1060" />
        </g>
        <g
           id="g1062"
           transform="scale(1.00184)"
           style="fill:#004bd9;fill-opacity:1;stroke:none">
          <path
             d="m 7960.6,16131.2 -666.71,168.8 -575.63,-168.8 422.54,-1459.6 923.48,-871.6 770.9,740.9 288.53,1094.1 -1163.11,-9.8 v 506"
             style="fill:#004bd9;fill-opacity:1;fill-rule:evenodd;stroke:none"
             id="path1064" />
        </g>
        <path
           d="m 10369.5,8801.1 c -379.37,-91 -724.37,-193.3 -1034.02,-308.1 l 169.49,-482.8 379.21,-366.8 1320.82,-56.1 233.9,133.5 c -153.1,148 -263.5,278.9 -333.9,387.8 -150.7,233.4 -421,767.5 -735.5,692.5"
           style="fill:#004bd9;fill-opacity:1;fill-rule:evenodd;stroke:none"
           id="path1162" />
        <path
           d="m 8752.33,6849.9 1131.85,793.5 -548.7,849.6 z"
           style="fill:#004bd9;fill-opacity:1;fill-rule:evenodd;stroke:none"
           id="path1164" />
        <path
           d="m 11534.5,7631.5 c -33.5,30.4 -65.4,60.11 -95.6,89.3 l -208,-10.3 -1346.76,-67.1 c 602.46,-166 779.26,-313.2 1308.36,-707.4 1296.2,-927.1 1014.9,84.8 342,695.5"
           style="fill:#004bd9;fill-opacity:1;fill-rule:evenodd;stroke:none"
           id="path1166" />
        <g
           id="g1368"
           transform="scale(1.03307)"
           style="fill:#004bd9;fill-opacity:1;stroke:none">
          <path
             d="m 14544,15985 -197.2,-341.5 h 950.8 c -31.3,517.5 -373.8,656.5 -753.6,341.5"
             style="fill:#004bd9;fill-opacity:1;fill-rule:evenodd;stroke:none"
             id="path1370" />
        </g>
        <path
           d="m 14377.3,15391.8 c 267.2,94.2 477.6,151.6 629.6,173.6 49.4,9.1 96.4,18.9 141.1,29.5 l -326.7,566 -444,-769.1"
           style="fill:#004bd9;fill-opacity:1;fill-rule:evenodd;stroke:none"
           id="path1372" />
        <path
           d="m 14665.7,16243.3 c -44.2,-30.4 -93.9,-57.9 -149.1,-82.4 h 304.7 l -79.1,136.9 -76.5,-54.5"
           style="fill:#004bd9;fill-opacity:1;fill-rule:evenodd;stroke:none"
           id="path1374" />
        <path
           d="m 11929.4,15823.2 -761.9,-1319.8 c 316.8,83.7 661,143.2 1034.8,175.8 196.3,9.9 427.8,57.7 696,141.3 l -644.8,1116.8 c -93.6,-37.7 -201.7,-75.8 -324.1,-114.1"
           style="fill:#004bd9;fill-opacity:1;fill-rule:evenodd;stroke:none"
           id="path1376" />
        <path
           d="M 9407.1,11454.5 8753.28,10322.1 8079.12,9154.4 h 1303.24 c -12.98,138.7 -38.12,277.5 -77.72,416.2 -97.52,451.9 -97.52,943.7 0,1475.4 32.67,112.5 66.79,249 102.46,408.5"
           style="fill:#004bd9;fill-opacity:1;fill-rule:evenodd;stroke:none"
           id="path1378" />
        <path
           d="M 9140.5,15663.8 8079.12,13825.4 h 1815.57 c 147.41,171.1 355.11,320 623.31,446.8 l -815.18,1411.9 c -121.13,-2.6 -309,-10.1 -562.32,-20.3"
           style="fill:#004bd9;fill-opacity:1;fill-rule:evenodd;stroke:none"
           id="path1380" />
        <path
           d="m 8079.12,13825.4 -674.29,-1167.7 -674.2,-1167.8 h 2684.29 l 3.46,15.8 -665.1,1152 -674.16,1167.7"
           style="fill:#004bd9;fill-opacity:1;fill-rule:evenodd;stroke:none"
           id="path1382" />
        <path
           d="M 6730.63,11489.9 6056.42,10322.1 5382.14,9154.4 h 2696.98 l -674.29,1167.7 -674.2,1167.8"
           style="fill:#004bd9;fill-opacity:1;fill-rule:evenodd;stroke:none"
           id="path1384" />
        <g
           id="g1386"
           transform="scale(1.08843)"
           style="fill:#004bd9;fill-opacity:1;stroke:none">
          <path
             d="m 7022.14,16300 -218.92,-379.2 -619.42,-1072.9 h 1143.5 v 889.9 c -37.3,263.3 -139.67,450.8 -305.16,562.2"
             style="fill:#004bd9;fill-opacity:1;fill-rule:evenodd;stroke:none"
             id="path1388" />
        </g>
        <path
           d="M 5382.14,13825.4 H 8079.12 L 6730.63,16160.9 Z"
           style="fill:#004bd9;fill-opacity:1;fill-rule:evenodd;stroke:none"
           id="path1390" />
        <path
           d="m 5382.14,13825.4 -511.79,-886.5 c 120.19,73.5 230.76,132.5 331.32,176.4 l 203.84,88.5 v -62 c 159.44,-943.8 239.27,-1457.8 239.27,-1533.1 0,-5.9 -7.81,-45.5 -23.33,-118.8 h 1109.18 l -674.21,1167.8 -674.28,1167.7"
           style="fill:#004bd9;fill-opacity:1;fill-rule:evenodd;stroke:none"
           id="path1392" />
        <path
           d="m 4603,9562 h 517.59 l -388.54,673.1 C 4689.99,10022.1 4646.9,9797.6 4603,9562"
           style="fill:#004bd9;fill-opacity:1;fill-rule:evenodd;stroke:none"
           id="path1394" />
        <g
           id="g1396"
           transform="scale(1.06631)"
           style="fill:#004bd9;fill-opacity:1;stroke:none">
          <path
             d="m 5651.49,16300 c -110.61,-145.3 -166.68,-316.1 -166.68,-510.1 0,-128.8 29.07,-307.4 83.12,-527.7 l 22.36,-106.3 h 721.77 l -632.28,1095.1 -28.29,49"
             style="fill:#004bd9;fill-opacity:1;fill-rule:evenodd;stroke:none"
             id="path1398" />
        </g>
        <path
           d="m 4148.8,14691.1 c -170.71,-240.9 -334.55,-455.9 -491.89,-645.5 h 1323.7 l -559.71,969.5 c -93.12,-101 -183.88,-208.9 -272.1,-324"
           style="fill:#004bd9;fill-opacity:1;fill-rule:evenodd;stroke:none"
           id="path1400" />
        <path
           d="m 3179.87,12968.9 c -214.56,-189.9 -514.38,-494.7 -902.52,-917.1 l -547.9,-561.9 h 955.83 276.23 c 185.51,119.2 435.75,306 747.82,562 l -349.85,605.8 -179.61,311.2"
           style="fill:#004bd9;fill-opacity:1;fill-rule:evenodd;stroke:none"
           id="path1402" />
        <path
           d="m 1240.51,10988.3 c -93.8,-132 -261.408,-313.4 -502.795,-536.2 l -75.078,-130 L 92.1758,9334 c 42.8632,-40.1 100.7302,-60.4 173.5942,-60.4 119.652,0 239.253,79.9 354.414,234.9 312.562,440.1 700.056,843.5 1162.536,1209.2 l -299.83,519.3 -242.38,-248.7"
           style="fill:#004bd9;fill-opacity:1;fill-rule:evenodd;stroke:none"
           id="path1404" />
        <path
           d="m 5506.37,4268.2 222.77,-1061.6 565.71,-304.1 911.73,1580.8 H 5667.59 c -50.81,-66 -104.57,-137.8 -161.22,-215.1"
           style="fill:#004bd9;fill-opacity:1;fill-rule:evenodd;stroke:none"
           id="path1406" />
        <path
           d="m 4526.92,2147.8 c -53.85,-79.3 -115.59,-166 -184.86,-260.3 -32.6,-32.6 -66.32,-65.6 -100.98,-98.8 l 466.9,-808.598 8.76,-15.2 C 5171.42,1243.6 5468.2,1584 5613.76,1976.2 c 24.44,54.3 54.35,111.6 89.59,171.6 h -321.21 -855.22"
           style="fill:#004bd9;fill-opacity:1;fill-rule:evenodd;stroke:none"
           id="path1408" />
        <path
           d="M 8079.12,9154.4 7404.83,7986.7 6730.63,6818.8 h 2001.2 l 40.99,62.4 c 99.1,220.3 186.23,426.6 261.35,618.9 l -280.89,486.6 -674.16,1167.7"
           style="fill:#004bd9;fill-opacity:1;fill-rule:evenodd;stroke:none"
           id="path1410" />
        <path
           d="m 6730.63,6818.8 -520.19,-900.9 -704.07,-1649.7 1700.21,215.1 c 89.28,210.4 228.34,474.6 415.8,791 l -217.55,376.8 -674.2,1167.7"
           style="fill:#004bd9;fill-opacity:1;fill-rule:evenodd;stroke:none"
           id="path1412" />
        <path
           d="M 5506.37,4268.2 4696.52,2419.3 c -42.59,-77.7 -99.38,-168.2 -169.6,-271.5 h 855.22 321.21 l 591.5,754.7 -238.43,413.1 -550.05,952.6"
           style="fill:#004bd9;fill-opacity:1;fill-rule:evenodd;stroke:none"
           id="path1414" />
        <path
           d="m 4241.15,1788.7 c -87.72,-84.09 -181.65,-169.8 -280.16,-255.6 -159.39,-177.3 -239.27,-323.4 -239.27,-443.1 0,-115.199 70.9,-225.996 208.25,-323.398 137.34,-79.7 354.47,-39.899 651.35,119.601 46.59,25.699 91.7,51.899 135.42,78.699 l -8.76,15.2 -466.83,808.598"
           style="fill:#004bd9;fill-opacity:1;fill-rule:evenodd;stroke:none"
           id="path1416" />
        <path
           d="M 2289.39,1935.3 H 1645.84 L 2320.01,767.602 2555.59,359.699 c 121.18,186.805 185.74,398.805 185.74,637.5 0,336.601 -128.43,620.401 -363.28,855.001 -28.78,29.4 -58.35,57.1 -88.66,83.1"
           style="fill:#004bd9;fill-opacity:1;fill-rule:evenodd;stroke:none"
           id="path1418" />
        <path
           d="M 5382.14,9154.4 4758.58,6969.7 c -10.7,-51.2 -18.93,-101.5 -24.62,-150.9 h 648.18 1348.49 l -674.21,1167.9 -674.28,1167.7"
           style="fill:#004bd9;fill-opacity:1;fill-rule:evenodd;stroke:none"
           id="path1420" />
        <path
           d="m 4049.92,8125.8 885.16,1151.31 h -611.1 C 4235.9,8922.2 4144.49,8538.5 4049.92,8125.8"
           style="fill:#004bd9;fill-opacity:1;fill-rule:evenodd;stroke:none"
           id="path1422" />
        <path
           d="m 1336.91,2147.8 h 643.56 c -147.16,126.4 -312.71,214.2 -494.76,257.7 l -148.8,-257.7"
           style="fill:#004bd9;fill-opacity:1;fill-rule:evenodd;stroke:none"
           id="path1424" />
        <path
           d="M 1336.86,2147.8 662.637,980.102 321.277,388.801 c 10.754,-11.602 21.793,-23 33.121,-34.297 C 593.691,115.102 877.234,0 1213.89,0 c 332.37,0 620.35,115.102 855.22,354.504 68.38,68.398 127.72,140.898 177.52,217.601 L 2011.08,980.102 1336.86,2147.8"
           style="fill:#004bd9;fill-opacity:1;fill-rule:evenodd;stroke:none"
           id="path1426" />
        <path
           d="m 444.297,2147.8 h 892.613 l -166.53,288.4 C 893.383,2426.6 653.063,2325.4 444.297,2147.8"
           style="fill:#004bd9;fill-opacity:1;fill-rule:evenodd;stroke:none"
           id="path1428" />
        <path
           d="m 1391.56,9304.2 448.72,-448.7 448.72,-448.8 290.13,738.9 290.12,738.9 -738.84,-290.2 -738.85,-290.1"
           style="fill:#004bd9;fill-opacity:1;fill-rule:evenodd;stroke:none"
           id="path1894" />
        <path
           d="m 1800.82,12144.3 240.73,417.1 H 1250.9 c 172.54,-182.1 357.95,-328.9 549.92,-417.1"
           style="fill:#004bd9;fill-opacity:1;fill-rule:evenodd;stroke:none"
           id="path1896" />
        <path
           d="m 1004.01,11666.9 c 116.12,-53.3 234.89,-82.9 354.9,-82.9 40.94,0 81.9,2.7 123.04,7.8 l -260.76,451.4 -217.18,-376.3"
           style="fill:#004bd9;fill-opacity:1;fill-rule:evenodd;stroke:none"
           id="path1898" />
        <path
           d="m 2684.51,14612.9 h 964.06 l -477.51,826.9 C 3005.98,15166 2844.44,14890 2684.51,14612.9"
           style="fill:#004bd9;fill-opacity:1;fill-rule:evenodd;stroke:none"
           id="path1900" />
        <path
           d="m 4211.93,11851.6 c -47.91,-146.5 -72.6,-299.8 -72.6,-460.6 0,-257.2 36.25,-539 108.13,-845.8 h 718.76 l -464.28,804 -290.01,502.4"
           style="fill:#004bd9;fill-opacity:1;fill-rule:evenodd;stroke:none"
           id="path1902" />
        <g
           id="g1904"
           transform="scale(1.04528)"
           style="fill:#004bd9;fill-opacity:1;stroke:none">
          <path
             d="m 4949.22,15849.9 259.88,450.1 c -144.87,-15.6 -306.99,-37.1 -482.92,-63.7 l 223.04,-386.4"
             style="fill:#004bd9;fill-opacity:1;fill-rule:evenodd;stroke:none"
             id="path1906" />
        </g>
        <path
           d="m 2645.75,5519.2 5.76,10 674.26,1167.7 H 2281.95 c 86.17,-367.8 207.6,-760.2 363.8,-1177.7"
           style="fill:#004bd9;fill-opacity:1;fill-rule:evenodd;stroke:none"
           id="path1908" />
        <path
           d="m 3223.16,5634.9 h 1066.55 l -428.76,742.6 z"
           style="fill:#004bd9;fill-opacity:1;fill-rule:evenodd;stroke:none"
           id="path1910" />
        <path
           d="m 4824.25,11397.7 h 597.84 l -706.59,1223.7 c 7.57,-388.3 43.93,-796.2 108.75,-1223.7"
           style="fill:#004bd9;fill-opacity:1;fill-rule:evenodd;stroke:none"
           id="path1912" />
        <path
           d="m 3555.8,9073.2 566.38,980.9 h -748.89 c 48.24,-318.3 109.1,-645.1 182.51,-980.9"
           style="fill:#004bd9;fill-opacity:1;fill-rule:evenodd;stroke:none"
           id="path1914" />
        <path
           d="m 1594.49,8107.3 -328.67,-470.4 -328.695,-470.4 703.735,-141.7 703.72,-141.6 -375.05,612.1 -375.04,612"
           style="fill:#004bd9;fill-opacity:1;fill-rule:evenodd;stroke:none"
           id="path1916" />
        <path
           d="m 1536.95,10494.2 118.91,-371.8 118.92,-371.8 366.86,322.2 366.87,322.3 -485.78,49.5 -485.78,49.6"
           style="fill:#004bd9;fill-opacity:1;fill-rule:evenodd;stroke:none"
           id="path1918" />
        <path
           d="m 2501.72,14583.8 -195.52,-279.9 -195.53,-279.9 418.64,-84.2 418.66,-84.3 -223.11,364.1 -223.14,364.2"
           style="fill:#004bd9;fill-opacity:1;fill-rule:evenodd;stroke:none"
           id="path1920" />
        <path
           d="m 3944.96,5379.9 -181.45,-530.9 -181.46,-530.9 699.44,57.4 699.44,57.4 -517.98,473.5 -517.99,473.5"
           style="fill:#004bd9;fill-opacity:1;fill-rule:evenodd;stroke:none"
           id="path1922" />
        <path
           d="m 2729.56,7280.6 c 616.72,-150.8 1258.35,-285 1925.67,-402.9 L 3291.25,8646.3 2729.56,7280.6"
           style="fill:#004bd9;fill-opacity:1;fill-rule:evenodd;stroke:none"
           id="path1924" />
        <path
           d="m 2796.8,4354.5 -136.08,-398.1 -136.09,-398.2 524.57,43.1 524.57,43 -388.48,355.1 -388.49,355.1"
           style="fill:#004bd9;fill-opacity:1;fill-rule:evenodd;stroke:none"
           id="path1926" />
        <path
           d="m 3133.27,3038.9 122.71,-540.6 122.76,-540.6 558.43,411 558.43,411 -681.16,129.6 -681.17,129.6"
           style="fill:#004bd9;fill-opacity:1;fill-rule:evenodd;stroke:none"
           id="path1928" />
        <path
           d="m 2885.86,10450.8 372.99,646 h -493.19 c 31.76,-209.7 71.83,-424.9 120.2,-646"
           style="fill:#004bd9;fill-opacity:1;fill-rule:evenodd;stroke:none"
           id="path1930" />
        <path
           d="m 2488.72,15126.1 117.9,841.6 c -265.71,-101.7 -530.17,-206.8 -794.12,-313.6 l 676.22,-528"
           style="fill:#004bd9;fill-opacity:1;fill-rule:evenodd;stroke:none"
           id="path1932" />
        <path
           d="m 1755.38,14127.4 -326.99,-468 -327.01,-468.1 700.14,-140.9 700.15,-140.9 -373.14,609 -373.15,608.9"
           style="fill:#004bd9;fill-opacity:1;fill-rule:evenodd;stroke:none"
           id="path1934" />
        <g
           id="g1936"
           transform="scale(1.06021)"
           style="fill:#004bd9;fill-opacity:1;stroke:none">
          <path
             d="m 3383.69,15605.9 h 809.15 l -400.78,694.1 c -138.56,-229.8 -274.12,-461.5 -408.37,-694.1"
             style="fill:#004bd9;fill-opacity:1;fill-rule:evenodd;stroke:none"
             id="path1938" />
        </g>
        <g
           id="g1940"
           transform="scale(1.04021)"
           style="fill:#004bd9;fill-opacity:1;stroke:none">
          <path
             d="m 2848.09,15790.9 303.06,483.7 c -190.79,10.5 -381.79,18.6 -572.95,25.4 l 269.89,-509.1"
             style="fill:#004bd9;fill-opacity:1;fill-rule:evenodd;stroke:none"
             id="path1942" />
        </g>
        <path
           d="m 1436.63,15396.8 -242.19,-346.6 -242.151,-346.6 518.501,-104.4 518.51,-104.3 -276.32,450.9 -276.35,451"
           style="fill:#004bd9;fill-opacity:1;fill-rule:evenodd;stroke:none"
           id="path1944" />
        <g
           id="g1946"
           transform="scale(1.05274)"
           style="fill:#004bd9;fill-opacity:1;stroke:none">
          <path
             d="m 1233.93,16300 60.58,-475.2 60.6,-475.2 514.54,307.1 514.48,307 -575.09,168.2 -575.11,168.1"
             style="fill:#004bd9;fill-opacity:1;fill-rule:evenodd;stroke:none"
             id="path1948" />
        </g>
        <path
           d="m 3992.61,15149.4 154.19,1100.4 c -347.47,-132.9 -693.28,-270.4 -1038.42,-410.1 l 884.23,-690.3"
           style="fill:#004bd9;fill-opacity:1;fill-rule:evenodd;stroke:none"
           id="path1950" />
        <path
           d="m 2822.01,954.203 355.7,-224.801 355.71,-224.797 79.88,520.295 79.88,520.2 -435.59,-295.4 -435.58,-295.497"
           style="fill:#004bd9;fill-opacity:1;fill-rule:evenodd;stroke:none"
           id="path1952" />
        <path
           d="m 1959.04,2564.5 355.72,-224.8 355.71,-224.7 79.87,520.2 79.88,520.2 -435.58,-295.4 -435.6,-295.5"
           style="fill:#004bd9;fill-opacity:1;fill-rule:evenodd;stroke:none"
           id="path1954" />
        <path
           d="m 3753.79,3550.5 210.44,-133.1 210.47,-132.9 47.25,307.8 47.27,307.8 -257.71,-174.8 -257.72,-174.8"
           style="fill:#004bd9;fill-opacity:1;fill-rule:evenodd;stroke:none"
           id="path1956" />
        <path
           d="m 2522.6,4948.5 210.47,-133 210.45,-133 47.28,307.8 47.24,307.8 -257.71,-174.8 -257.73,-174.8"
           style="fill:#004bd9;fill-opacity:1;fill-rule:evenodd;stroke:none"
           id="path1958" />
        <path
           d="M 1641.41,5370.2 1480.69,4899.9 1320,4429.61 l 619.53,50.89 619.54,50.8 -458.82,419.5 -458.84,419.4"
           style="fill:#004bd9;fill-opacity:1;fill-rule:evenodd;stroke:none"
           id="path1960" />
        <path
           d="M 1634.07,3739.3 1513.52,3386.7 1393,3034 l 464.63,38.11 464.62,38.19 -344.1,314.5 -344.08,314.5"
           style="fill:#004bd9;fill-opacity:1;fill-rule:evenodd;stroke:none"
           id="path1962" />
        <path
           d="m 1119.79,6236.7 692.86,-461.1 -110.81,900 z"
           style="fill:#004bd9;fill-opacity:1;fill-rule:evenodd;stroke:none"
           id="path1964" />
        <path
           d="m 4983.91,15518.2 c 188.4,225.1 357.81,435 504.05,625.8 l -857.04,19.9 352.99,-645.7"
           style="fill:#004bd9;fill-opacity:1;fill-rule:evenodd;stroke:none"
           id="path2194" />
      </g>
    </g>
  </g>
</svg>
