<?xml version="1.0" encoding="UTF-8" standalone="no"?>
<!-- Created with Inkscape (http://www.inkscape.org/) -->

<svg
   width="1000"
   height="1000"
   viewBox="0 0 264.58333 264.58334"
   version="1.1"
   id="svg2279"
   xmlns="http://www.w3.org/2000/svg"
   xmlns:svg="http://www.w3.org/2000/svg">
  <defs
     id="defs2276" />
  <g
     id="layer1"
     style="stroke:none">
    <g
       id="g10116"
       transform="matrix(-0.82265852,0,0,0.82265852,235.1242,33.910918)"
       style="stroke:none">
      <path
         style="fill:#ffffff;stroke:none;stroke-width:0.264583px;stroke-linecap:butt;stroke-linejoin:miter;stroke-opacity:1"
         d="M 5.9858592,0.24967306 -30.00063,272.68283 286.05609,251.48371 231.10284,-30.046789 Z"
         id="path9705" />
      <g
         id="g8347"
         transform="matrix(0.01453767,0,0,-0.01453767,-276.5112,272.72004)"
         style="fill:#004bd9;fill-opacity:1;stroke:none">
        <g
           id="g896"
           transform="scale(1.86537)"
           style="fill:#004bd9;fill-opacity:1;stroke:none">
          <path
             d="m 15948.8,9564.82 -239.1,-174.98 -90.5,-396.01 384.1,-210.52 296.7,210.52 c -25.1,287.34 -142,477.65 -351.2,570.99"
             style="fill:#004bd9;fill-opacity:1;fill-rule:evenodd;stroke:none"
             id="path898" />
        </g>
        <g
           id="g900"
           transform="scale(1.78745)"
           style="fill:#004bd9;fill-opacity:1;stroke:none">
          <path
             d="m 15946.3,9998.69 c -16.9,-5.59 -33.7,-11.58 -50.3,-18.07 -267.3,-109.43 -350.7,-361.35 -475.8,-588.6 -180.8,46.94 -362.5,97.35 -543.9,141.09 l -85,-147.24 760.4,-140.37 748.3,140.37 -49.7,437.54 -304,175.28"
             style="fill:#004bd9;fill-opacity:1;fill-rule:evenodd;stroke:none"
             id="path902" />
        </g>
        <g
           id="g904"
           transform="scale(1.62201)"
           style="fill:#004bd9;fill-opacity:1;stroke:none">
          <path
             d="m 15104.5,10343.2 491.9,-201.7 703.6,201.7 -117.7,203.9 c -220,28.3 -769.5,-165.5 -1077.8,-203.9"
             style="fill:#004bd9;fill-opacity:1;fill-rule:evenodd;stroke:none"
             id="path906" />
        </g>
        <g
           id="g908"
           transform="scale(1.70473)"
           style="fill:#004bd9;fill-opacity:1;stroke:none">
          <path
             d="m 16102.1,2991.27 c 13.4,-60.83 40.6,-128.06 81.3,-201.8 l 116.6,201.8 -131.2,73.55 -66.7,-73.55"
             style="fill:#004bd9;fill-opacity:1;fill-rule:evenodd;stroke:none"
             id="path910" />
        </g>
        <g
           id="g912"
           transform="scale(2.19018)"
           style="fill:#004bd9;fill-opacity:1;stroke:none">
          <path
             d="m 15442.7,3088.05 -0.6,-253.63 c 33.7,-50.72 74.3,-91.59 118.9,-120.72 40.3,-20.18 85.3,-20.18 134.7,0 121.2,-89.72 255.8,-134.69 404,-134.69 46,-2.7 90.7,-1.1 133.9,4.79 l 66.4,405.4 -534.5,405.4 -322.8,-306.55"
             style="fill:#004bd9;fill-opacity:1;fill-rule:evenodd;stroke:none"
             id="path914" />
        </g>
        <g
           id="g916"
           transform="scale(1.80038)"
           style="fill:#004bd9;fill-opacity:1;stroke:none">
          <path
             d="m 15608.5,3656.67 -174.5,-824.32 676.3,-236.29 189.7,236.29 -367.6,863.2 -323.9,-38.88"
             style="fill:#004bd9;fill-opacity:1;fill-rule:evenodd;stroke:none"
             id="path918" />
        </g>
        <g
           id="g920"
           transform="scale(1.70473)"
           style="fill:#004bd9;fill-opacity:1;stroke:none">
          <path
             d="m 15904.5,3676.24 146,430.16 -541.5,254.88 -122,-211.41 c 306.5,-194.17 487.5,-377.6 550.8,-548.01 66.6,-204.96 120.8,-399.65 164.3,-610.59 h 197.9 l -67.5,392.73 -328,292.24"
             style="fill:#004bd9;fill-opacity:1;fill-rule:evenodd;stroke:none"
             id="path922" />
        </g>
        <g
           id="g924"
           transform="scale(1.54547)"
           style="fill:#004bd9;fill-opacity:1;stroke:none">
          <path
             d="m 15330.3,9344.37 -432,-707.75 27.6,-47.88 436.3,-755.63 436.3,755.63 501.5,782.09 -602.5,153.48 -367.2,-179.94"
             style="fill:#004bd9;fill-opacity:1;fill-rule:evenodd;stroke:none"
             id="path926" />
        </g>
        <g
           id="g928"
           transform="scale(1.67797)"
           style="fill:#004bd9;fill-opacity:1;stroke:none">
          <path
             d="m 15762.3,7276.83 -5.9,-62.27 h 543.6 c -149.3,27.77 -314.6,55.54 -495.5,83.31 l -42.2,-21.04"
             style="fill:#004bd9;fill-opacity:1;fill-rule:evenodd;stroke:none"
             id="path930" />
        </g>
        <g
           id="g932"
           transform="scale(1.77276)"
           style="fill:#004bd9;fill-opacity:1;stroke:none">
          <path
             d="m 15688,8260.11 -316.6,-311.49 3,-322.04 c 385.8,-254.18 694.3,-442.36 925.6,-563.81 l -152.9,517.05 -459.1,680.29"
             style="fill:#004bd9;fill-opacity:1;fill-rule:evenodd;stroke:none"
             id="path934" />
        </g>
        <g
           id="g936"
           transform="scale(1.5769)"
           style="fill:#004bd9;fill-opacity:1;stroke:none">
          <path
             d="m 16300,7839.68 c -1.9,0.25 -3.6,0.51 -5.5,0.76 0,-2.16 2.1,-2.09 5.5,-0.76"
             style="fill:#004bd9;fill-opacity:1;fill-rule:evenodd;stroke:none"
             id="path938" />
        </g>
        <g
           id="g940"
           transform="scale(1.62262)"
           style="fill:#004bd9;fill-opacity:1;stroke:none">
          <path
             d="m 15840.7,7618.79 c -3.2,-1.29 -5.3,-1.35 -5.3,0.74 1.8,-0.25 3.5,-0.49 5.3,-0.74 19.8,7.83 99.8,77.53 240.8,209.66 l -68.8,614.13 -549.9,457.47 -664.3,-470.9 -166.7,-968.5 844.4,-289.1 817.6,289.1 6.2,64.4 -65.4,38.21 c -124.6,18.49 -256.1,36.98 -393.9,55.53"
             style="fill:#004bd9;fill-opacity:1;fill-rule:evenodd;stroke:none"
             id="path942" />
        </g>
        <g
           id="g944"
           transform="scale(2.26121)"
           style="fill:#004bd9;fill-opacity:1;stroke:none">
          <path
             d="m 15609,3874.52 -276.9,-147.26 -61.8,-439.28 567.4,-183.31 462.3,183.31 c -44.1,337.65 -353.8,587.43 -691,586.54"
             style="fill:#004bd9;fill-opacity:1;fill-rule:evenodd;stroke:none"
             id="path946" />
        </g>
        <g
           id="g948"
           transform="scale(2.12463)"
           style="fill:#004bd9;fill-opacity:1;stroke:none">
          <path
             d="m 15918.5,3598 -432.6,386.42 -151.5,124.21 -275.7,-64.76 -44.2,-489.36 c 41.1,-18.26 81.4,-36.66 120.6,-55.16 l 600.3,-169.45 516.5,169.45 48.1,341.42 -255.4,17.7 c -52.1,-72.01 -94.2,-158.81 -126.1,-260.47"
             style="fill:#004bd9;fill-opacity:1;fill-rule:evenodd;stroke:none"
             id="path950" />
        </g>
        <g
           id="g952"
           transform="scale(1.94597)"
           style="fill:#004bd9;fill-opacity:1;stroke:none">
          <path
             d="m 15665.2,5020.79 -264.6,-190.19 -6.6,-279.55 c 149.9,-148 233,-225.9 250.5,-233.71 159.1,-146.51 315.7,-252.58 472.4,-320.82 62.7,-24.87 123.7,-49.95 183.1,-75.23 l -209.9,594.71 -424.9,504.79"
             style="fill:#004bd9;fill-opacity:1;fill-rule:evenodd;stroke:none"
             id="path954" />
        </g>
        <g
           id="g956"
           transform="scale(1.71211)"
           style="fill:#004bd9;fill-opacity:1;stroke:none">
          <path
             d="m 16282.4,5615.23 17.6,54.85 -70.3,36.5 -66.7,-32.41 23.3,-42.75 96.1,-16.19"
             style="fill:#004bd9;fill-opacity:1;fill-rule:evenodd;stroke:none"
             id="path958" />
        </g>
        <g
           id="g960"
           transform="scale(1.74289)"
           style="fill:#004bd9;fill-opacity:1;stroke:none">
          <path
             d="m 15649.3,5096.88 -262,-148.54 -217.8,-682.55 761.1,-287.91 369.4,287.91 c -37,145.28 -100.9,266.23 -186.5,365.66 l -464.2,465.43"
             style="fill:#004bd9;fill-opacity:1;fill-rule:evenodd;stroke:none"
             id="path962" />
        </g>
        <g
           id="g964"
           transform="scale(1.62201)"
           style="fill:#004bd9;fill-opacity:1;stroke:none">
          <path
             d="m 15468.6,6023.59 -415.6,-719.91 -105.8,-183.17 c 304.1,-195.5 589.5,-374.47 856.3,-536.8 h 496.5 l -113.1,921.76 -718.3,518.12"
             style="fill:#004bd9;fill-opacity:1;fill-rule:evenodd;stroke:none"
             id="path966" />
        </g>
        <g
           id="g968"
           transform="scale(1.62696)"
           style="fill:#004bd9;fill-opacity:1;stroke:none">
          <path
             d="m 16250.4,7440.77 49.6,85.92 c -35.6,5.47 -71.9,10.88 -108.7,16.41 l 59.1,-102.33"
             style="fill:#004bd9;fill-opacity:1;fill-rule:evenodd;stroke:none"
             id="path970" />
        </g>
        <g
           id="g972"
           transform="scale(1.70473)"
           style="fill:#004bd9;fill-opacity:1;stroke:none">
          <path
             d="m 14718,8471.37 395.5,-685.03 193.4,-334.95 c 133.7,125.24 324.6,308.9 573.3,550.88 36.5,-24.29 72.5,-48.05 107.8,-71.34 l 312,540.44 -816.6,147.18 -765.4,-147.18"
             style="fill:#004bd9;fill-opacity:1;fill-rule:evenodd;stroke:none"
             id="path974" />
        </g>
        <g
           id="g976"
           transform="scale(1.87018)"
           style="fill:#004bd9;fill-opacity:1;stroke:none">
          <path
             d="M 15898.6,5919.42 15737,5980 c -124.8,67.32 -237.8,127.21 -338.9,179.66 l -389.6,-252.7 -150.5,-682.71 826,-93.31 616,93.31 -179.7,461.07 -221.7,234.1"
             style="fill:#004bd9;fill-opacity:1;fill-rule:evenodd;stroke:none"
             id="path978" />
        </g>
        <g
           id="g980"
           transform="scale(1.70473)"
           style="fill:#004bd9;fill-opacity:1;stroke:none">
          <path
             d="m 15509,7101.3 -600.2,-467.4 -190.8,-902.61 h 762.7 l -62,62.18 c 129.8,-20.71 257.6,-41.47 383.7,-62.18 h 497.6 l -88.3,825.76 -702.7,544.25"
             style="fill:#004bd9;fill-opacity:1;fill-rule:evenodd;stroke:none"
             id="path982" />
        </g>
        <g
           id="g984"
           transform="scale(1.53928)"
           style="fill:#004bd9;fill-opacity:1;stroke:none">
          <path
             d="m 15424,7864.61 -650.6,-546.04 -121.1,-790.43 c 25.5,-61.92 54.9,-122.2 88.3,-180.8 h 683.4 876 l -267.9,1098.83 -608.1,418.44"
             style="fill:#004bd9;fill-opacity:1;fill-rule:evenodd;stroke:none"
             id="path986" />
        </g>
        <g
           id="g988"
           transform="scale(2.0804)"
           style="fill:#004bd9;fill-opacity:1;stroke:none">
          <path
             d="m 16229.6,6456.17 c -32.8,3.36 -76.4,0.86 -131,-7.6 -21.2,-11.77 -47.3,0 -78,30.72 -9.4,9.47 4.7,26 47.3,47.25 42.5,21.29 52,47.3 30.7,78.01 -9.5,21.3 -56.7,25.96 -141.8,16.49 -61.4,-9.42 -108.7,-30.67 -141.7,-63.79 l -154.7,-115.98 -166.3,-150.07 -123.6,-352.15 c 32.1,2.6 59.7,3.85 83,3.85 146.5,-9.47 262.3,-14.18 347.4,-14.18 176.4,-45.42 353.2,27.45 425.3,203.23 38.6,86.09 63.2,153.53 73.8,202.32 l -8.8,76.62 -61.6,45.28"
             style="fill:#004bd9;fill-opacity:1;fill-rule:evenodd;stroke:none"
             id="path990" />
        </g>
        <g
           id="g992"
           transform="scale(1.94832)"
           style="fill:#004bd9;fill-opacity:1;stroke:none">
          <path
             d="m 15837.6,6799.97 -464.3,50.4 -32.6,32.64 -230.9,-142.94 -86.1,-406.15 c 67.2,-28.43 122.3,-46.34 165.3,-53.68 495.2,-70.78 620.5,-17.76 1084.4,45.88 l 26.6,298.98 -287.4,152.69 c -55.3,6.37 -113.7,13.76 -175,22.18"
             style="fill:#004bd9;fill-opacity:1;fill-rule:evenodd;stroke:none"
             id="path994" />
        </g>
        <g
           id="g996"
           transform="scale(1.83204)"
           style="fill:#004bd9;fill-opacity:1;stroke:none">
          <path
             d="m 15903.3,9157.43 -641.9,-482.58 -94.1,-792.17 288.7,-148.85 297.6,148.85 -172,172.59 c 107.3,-83.13 185.2,-107.26 230.7,-72.43 95.7,97.49 154.4,131.05 252.3,214.68 69.7,-24.18 121.5,-76.2 145.6,-41.27 13.2,49.67 62.1,286.73 89.8,314.19 l -87.8,453.48 -308.9,233.51"
             style="fill:#004bd9;fill-opacity:1;fill-rule:evenodd;stroke:none"
             id="path998" />
        </g>
        <g
           id="g1000"
           transform="scale(1.70473)"
           style="fill:#004bd9;fill-opacity:1;stroke:none">
          <path
             d="m 15509,9841.33 -600.2,-563.38 -190.8,-806.58 h 1582 l -273.9,768.16 -517.1,601.8"
             style="fill:#004bd9;fill-opacity:1;fill-rule:evenodd;stroke:none"
             id="path1002" />
        </g>
        <g
           id="g1004"
           transform="scale(1.53928)"
           style="fill:#004bd9;fill-opacity:1;stroke:none">
          <path
             d="m 15458,10840.2 -73.8,-9.8 -518.7,-569.3 -122.1,-540.62 c 188.5,117.33 328.8,207.44 416.5,272.47 99,12.85 284.2,-15.99 552.5,-86.15 L 15392,9381.94 h 32 876 l -218.3,829.46 -623.7,628.8"
             style="fill:#004bd9;fill-opacity:1;fill-rule:evenodd;stroke:none"
             id="path1006" />
        </g>
        <g
           id="g1008"
           transform="scale(1.37512)"
           style="fill:#004bd9;fill-opacity:1;stroke:none">
          <path
             d="m 15371.6,10756.9 c -210.6,-124.8 -337.5,-208.7 -383.8,-255 l 324.1,-190.5 561.9,190.5 c 16.9,21.5 31.8,42.2 44.9,62 97.8,49.6 182.8,92.8 255,130.1 l 126.3,515.3 -434.9,19 c -245.5,-279.7 -410,-436.4 -493.5,-471.4"
             style="fill:#004bd9;fill-opacity:1;fill-rule:evenodd;stroke:none"
             id="path1010" />
        </g>
        <g
           id="g1012"
           transform="scale(1.82518)"
           style="fill:#004bd9;fill-opacity:1;stroke:none">
          <path
             d="m 15616.7,9792.03 346.4,-600.16 336.9,583.56 c -205,91.45 -472.2,87.06 -683.3,16.6"
             style="fill:#004bd9;fill-opacity:1;fill-rule:evenodd;stroke:none"
             id="path1014" />
        </g>
        <g
           id="g1236"
           transform="scale(2.08228)"
           style="fill:#004bd9;fill-opacity:1;stroke:none">
          <path
             d="m 16215,6450.35 43.7,-75.79 26.6,-46 c 14.7,67.52 11.3,113.43 -70.3,121.79"
             style="fill:#004bd9;fill-opacity:1;fill-rule:evenodd;stroke:none"
             id="path1238" />
        </g>
        <g
           id="g1240"
           transform="scale(1.99877)"
           style="fill:#004bd9;fill-opacity:1;stroke:none">
          <path
             d="m 16003.5,6579.11 c -106.2,0 -238.2,9.5 -395,27.61 l 254.1,-440.27 c 51.5,7.06 96.6,12.06 135.6,15.16 l 265.2,459.28 36.6,63.44 -35.9,-26.86 c -120.4,-63.94 -206.5,-98.36 -260.6,-98.36"
             style="fill:#004bd9;fill-opacity:1;fill-rule:evenodd;stroke:none"
             id="path1242" />
        </g>
        <g
           id="g1244"
           transform="scale(1.92089)"
           style="fill:#004bd9;fill-opacity:1;stroke:none">
          <path
             d="m 16015.9,5339.46 -163.2,-29 17,-224.12 249.7,-105.05 180.6,105.05 -210.7,172.84 c -25.3,27.49 -49.8,54.25 -73.4,80.28"
             style="fill:#004bd9;fill-opacity:1;fill-rule:evenodd;stroke:none"
             id="path1246" />
        </g>
        <g
           id="g1248"
           transform="scale(1.8874)"
           style="fill:#004bd9;fill-opacity:1;stroke:none">
          <path
             d="m 15753.5,5865.41 40.6,-70.1 357.2,-618.73 148.7,257.6 c -117.1,128.81 -214.3,240.02 -289.9,335.07 l -256.6,96.16"
             style="fill:#004bd9;fill-opacity:1;fill-rule:evenodd;stroke:none"
             id="path1250" />
        </g>
        <g
           id="g1252"
           transform="scale(1.86824)"
           style="fill:#004bd9;fill-opacity:1;stroke:none">
          <path
             d="m 16274.9,8980.01 h -679.7 l 360.9,-625.03 28.1,-48.65 c 215.6,214.42 315.8,204.57 295.4,592.8 -0.8,27.78 -2.4,54.76 -4.7,80.88"
             style="fill:#004bd9;fill-opacity:1;fill-rule:evenodd;stroke:none"
             id="path1254" />
        </g>
        <g
           id="g1256"
           transform="scale(1.83366)"
           style="fill:#004bd9;fill-opacity:1;stroke:none">
          <path
             d="m 15153.9,7875.74 367.7,-636.87 237.1,-410.65 c 77,-40.41 145.2,-73.14 204.5,-98.22 l 293.8,508.87 43,74.55 -560.2,562.32 h -585.9"
             style="fill:#004bd9;fill-opacity:1;fill-rule:evenodd;stroke:none"
             id="path1258" />
        </g>
        <g
           id="g1260"
           transform="scale(1.7667)"
           style="fill:#004bd9;fill-opacity:1;stroke:none">
          <path
             d="m 15481.4,6852.22 -344.8,30.84 -171.6,-30.84 763.3,-1321.96 571.7,990.21 c -323.5,167.94 -532.2,264.78 -626.3,294.05 -60.6,12.56 -124.7,25.13 -192.3,37.7"
             style="fill:#004bd9;fill-opacity:1;fill-rule:evenodd;stroke:none"
             id="path1262" />
        </g>
        <g
           id="g1264"
           transform="scale(1.78745)"
           style="fill:#004bd9;fill-opacity:1;stroke:none">
          <path
             d="m 14791.3,9385.87 377.1,-653.28 377.2,-653.28 377.2,653.28 377.2,653.28 h -754.4 -754.3"
             style="fill:#004bd9;fill-opacity:1;fill-rule:evenodd;stroke:none"
             id="path1266" />
        </g>
        <g
           id="g1268"
           transform="scale(1.62201)"
           style="fill:#004bd9;fill-opacity:1;stroke:none">
          <path
             d="m 14637.3,7463.48 415.7,-719.92 415.6,-719.97 415.7,719.97 415.7,719.92 h -831.4 -831.3"
             style="fill:#004bd9;fill-opacity:1;fill-rule:evenodd;stroke:none"
             id="path1270" />
        </g>
        <g
           id="g1272"
           transform="scale(1.62722)"
           style="fill:#004bd9;fill-opacity:1;stroke:none">
          <path
             d="m 16144,10667.6 156,270.3 c -140.9,33.9 -258.5,57 -352.1,69.1 l 196.1,-339.4"
             style="fill:#004bd9;fill-opacity:1;fill-rule:evenodd;stroke:none"
             id="path1274" />
        </g>
        <g
           id="g1276"
           transform="scale(1.62201)"
           style="fill:#004bd9;fill-opacity:1;stroke:none">
          <path
             d="m 15104.5,10343.2 c -141.1,-17.5 -285.4,-36.1 -434.9,-55.9 l 383.4,-663.97 415.6,-719.91 415.7,719.91 415.7,719.87 h -831.4 -364.1"
             style="fill:#004bd9;fill-opacity:1;fill-rule:evenodd;stroke:none"
             id="path1278" />
        </g>
        <g
           id="g1280"
           transform="scale(1.45655)"
           style="fill:#004bd9;fill-opacity:1;stroke:none">
          <path
             d="m 15389.7,7971.98 c -67.2,-398.68 -35.2,-756.72 94.8,-1073.08 l 352.6,610.68 462.9,801.69 h -840.8 c -28.3,-116.78 -51.7,-229.99 -69.5,-339.29"
             style="fill:#004bd9;fill-opacity:1;fill-rule:evenodd;stroke:none"
             id="path1282" />
        </g>
        <g
           id="g1284"
           transform="scale(1.4528)"
           style="fill:#004bd9;fill-opacity:1;stroke:none">
          <path
             d="m 15270.5,10926.2 c -92.8,-112 -177.3,-211.4 -253.6,-298.2 l 292,-505.8 c 108.9,56.2 186.6,98.2 232.2,127.3 l 79.9,49.6 257,445.1 422,730.8 c -267.4,-37.5 -460.4,-100.9 -576.2,-190.1 -270.6,-192.9 -422.9,-314.8 -453.3,-358.7"
             style="fill:#004bd9;fill-opacity:1;fill-rule:evenodd;stroke:none"
             id="path1286" />
        </g>
        <g
           id="g1288"
           transform="scale(1.42715)"
           style="fill:#004bd9;fill-opacity:1;stroke:none">
          <path
             d="M 15667.6,9750.39 15219.7,8654.92 H 16300 l -594.8,1030.24 -37.6,65.23"
             style="fill:#004bd9;fill-opacity:1;fill-rule:evenodd;stroke:none"
             id="path1290" />
        </g>
        <g
           id="g1292"
           transform="scale(1.33917)"
           style="fill:#004bd9;fill-opacity:1;stroke:none">
          <path
             d="m 15390.2,10783.9 c -13.8,-13.8 -20.6,-24.4 -20.6,-31.8 -51.5,-84.5 -58.7,-146.8 -25.8,-198.2 284.1,-368.5 665.6,-140 956.2,230 h -585.1 -324.7"
             style="fill:#004bd9;fill-opacity:1;fill-rule:evenodd;stroke:none"
             id="path1294" />
        </g>
        <g
           id="g1296"
           transform="scale(2.255)"
           style="fill:#004bd9;fill-opacity:1;stroke:none">
          <path
             d="m 16207.2,2775.48 c 38.7,49.84 69.6,103.41 92.8,160.71 l -90.7,-157.03 -2.1,-3.68"
             style="fill:#004bd9;fill-opacity:1;fill-rule:evenodd;stroke:none"
             id="path1298" />
        </g>
        <g
           id="g1300"
           transform="scale(2.26202)"
           style="fill:#004bd9;fill-opacity:1;stroke:none">
          <path
             d="m 15860.9,3286.79 h -596.1 l 298,-516.26 155.2,-268.79 c 131.6,17.95 250,76.88 357.1,175.77 30.3,28.34 57.5,58.09 81.8,89.35 l 2.1,3.67 90.4,156.54 c 29.1,72.28 45.8,150.53 49.6,235.05 2,42.84 0.4,84.35 -4.9,124.67 h -433.2"
             style="fill:#004bd9;fill-opacity:1;fill-rule:evenodd;stroke:none"
             id="path1302" />
        </g>
        <g
           id="g1304"
           transform="scale(1.99828)"
           style="fill:#004bd9;fill-opacity:1;stroke:none">
          <path
             d="m 16127,1041.65 140.3,-242.962 9.5,-16.465 c 20.3,29.025 23.2,65.257 8.5,108.392 -24,66.809 -77.6,116.755 -158.3,151.035"
             style="fill:#004bd9;fill-opacity:1;fill-rule:evenodd;stroke:none"
             id="path1306" />
        </g>
        <g
           id="g1308"
           transform="scale(2.16534)"
           style="fill:#004bd9;fill-opacity:1;stroke:none">
          <path
             d="m 15742.9,3785.91 203.4,-352.37 311.4,539.32 42.3,73.2 c -246.1,-0.6 -431.5,-86.83 -557.1,-260.15"
             style="fill:#004bd9;fill-opacity:1;fill-rule:evenodd;stroke:none"
             id="path1310" />
        </g>
        <g
           id="g1312"
           transform="scale(2.11836)"
           style="fill:#004bd9;fill-opacity:1;stroke:none">
          <path
             d="m 15179.9,3509.69 c 226.5,-106.87 421.4,-217.76 583.8,-332.71 71.9,-53.39 129.9,-115.98 171.7,-194.91 9.3,-18.08 19.5,-35.31 30.2,-51.55 l 16.2,27.9 318.2,551.27 h -636.5 -483.6"
             style="fill:#004bd9;fill-opacity:1;fill-rule:evenodd;stroke:none"
             id="path1314" />
        </g>
        <g
           id="g1316"
           transform="scale(1.99544)"
           style="fill:#004bd9;fill-opacity:1;stroke:none">
          <path
             d="m 16150,1043.13 c -26.4,11.18 -55.6,20.7 -87.7,28.57 -89.7,24.6 -171.6,50.56 -245.4,78.27 l -202.2,-350.143 -45.9,-79.533 8,-0.851 c 160.3,-17.239 288.3,-24.605 386.8,-24.605 183,0 295.3,29.767 336.4,88.5 l -9.5,16.489 -140.5,243.303"
             style="fill:#004bd9;fill-opacity:1;fill-rule:evenodd;stroke:none"
             id="path1318" />
        </g>
        <g
           id="g1320"
           transform="scale(1.93629)"
           style="fill:#004bd9;fill-opacity:1;stroke:none">
          <path
             d="m 15869.3,1427.32 h -125.8 -696.5 l 348.3,-603.063 42.2,-73.286 c 88.8,-3.149 200.6,2.274 335.9,15.855 22.5,0 113.6,-7.384 271,-24.532 l 47.3,81.963 208.3,360.843 c -99.4,37.39 -184.5,77.93 -255,122.5 -44.1,25.67 -102.7,65.75 -175.7,119.72"
             style="fill:#004bd9;fill-opacity:1;fill-rule:evenodd;stroke:none"
             id="path1322" />
        </g>
        <g
           id="g1324"
           transform="scale(1.99876)"
           style="fill:#004bd9;fill-opacity:1;stroke:none">
          <path
             d="m 15251.4,4888.18 337.4,-584.21 280.7,-486.25 c 30.6,-13.06 60.7,-26.22 90.4,-39.38 l 303.5,525.63 36.6,63.39 -635,520.82 h -413.6"
             style="fill:#004bd9;fill-opacity:1;fill-rule:evenodd;stroke:none"
             id="path1326" />
        </g>
        <g
           id="g1328"
           transform="scale(1.88513)"
           style="fill:#004bd9;fill-opacity:1;stroke:none">
          <path
             d="m 15872.9,1987.19 -49.5,116.22 -10.3,-17.82 -357.7,-619.53 h 715.4 129.2 c -58.5,43.33 -126.2,95.37 -202.8,156 -67.8,57.4 -143.4,179.99 -224.3,365.13"
             style="fill:#004bd9;fill-opacity:1;fill-rule:evenodd;stroke:none"
             id="path1330" />
        </g>
        <g
           id="g1332"
           transform="scale(1.83001)"
           style="fill:#004bd9;fill-opacity:1;stroke:none">
          <path
             d="m 15921,2786.5 h -736.8 l 368.4,-638.09 368.4,-638.19 368.5,638.19 10.5,18.36 -263.9,619.73 H 15921"
             style="fill:#004bd9;fill-opacity:1;fill-rule:evenodd;stroke:none"
             id="path1334" />
        </g>
        <g
           id="g1336"
           transform="scale(1.83384)"
           style="fill:#004bd9;fill-opacity:1;stroke:none">
          <path
             d="m 15887.7,1507.06 53.9,-196.15 c 45.6,-179.57 83.1,-329.634 107.2,-447.639 34.7,-42.478 118.2,-65.545 251.2,-70.344 l -44.6,77.38 -367.7,636.753"
             style="fill:#004bd9;fill-opacity:1;fill-rule:evenodd;stroke:none"
             id="path1338" />
        </g>
        <g
           id="g1340"
           transform="scale(1.87018)"
           style="fill:#004bd9;fill-opacity:1;stroke:none">
          <path
             d="m 14858,5224.25 48.2,-83.63 c 139.4,-23.58 276.2,-46.95 410.2,-70.05 244.4,-13.1 425.8,-70.95 541.5,-176.08 59.6,-59.62 112.9,-112.61 159.9,-159.02 l 282.2,488.78 h -721.1 -720.9"
             style="fill:#004bd9;fill-opacity:1;fill-rule:evenodd;stroke:none"
             id="path1342" />
        </g>
        <g
           id="g1344"
           transform="scale(1.75978)"
           style="fill:#004bd9;fill-opacity:1;stroke:none">
          <path
             d="m 16145.9,4215.42 -2.3,9.43 h -353.5 -766.2 l 383.1,-663.61 383.1,-663.54 383.1,663.54 126.8,219.58 -42.3,99.44 c -25.1,36.25 -61.4,148.09 -111.8,335.16"
             style="fill:#004bd9;fill-opacity:1;fill-rule:evenodd;stroke:none"
             id="path1346" />
        </g>
        <g
           id="g1348"
           transform="scale(1.78745)"
           style="fill:#004bd9;fill-opacity:1;stroke:none">
          <path
             d="m 15434.5,2660.38 c 66.8,-120.73 172.1,-259.87 315.8,-418.81 207.1,-236.26 361.8,-455.79 549.7,-695.4 l -754.4,1306.66 -111.1,-192.45"
             style="fill:#004bd9;fill-opacity:1;fill-rule:evenodd;stroke:none"
             id="path1350" />
        </g>
        <g
           id="g1352"
           transform="scale(1.70473)"
           style="fill:#004bd9;fill-opacity:1;stroke:none">
          <path
             d="m 16256.4,5655.8 43.6,75.49 h -497.6 c 154.1,-25.23 305.4,-50.45 454,-75.49"
             style="fill:#004bd9;fill-opacity:1;fill-rule:evenodd;stroke:none"
             id="path1354" />
        </g>
        <g
           id="g1356"
           transform="scale(1.67331)"
           style="fill:#004bd9;fill-opacity:1;stroke:none">
          <path
             d="m 14994.3,5838.9 402.9,-697.84 403,-697.9 402.9,697.9 96.9,167.75 -528.6,530.09 h -777.1"
             style="fill:#004bd9;fill-opacity:1;fill-rule:evenodd;stroke:none"
             id="path1358" />
        </g>
        <g
           id="g1360"
           transform="scale(1.59066)"
           style="fill:#004bd9;fill-opacity:1;stroke:none">
          <path
             d="m 16053.4,4153.18 c 23,-14.02 45.5,-28.11 67.6,-42.06 l 179,309.99 h -692.9 c 153.1,-93.23 301.9,-182.5 446.3,-267.93"
             style="fill:#004bd9;fill-opacity:1;fill-rule:evenodd;stroke:none"
             id="path1362" />
        </g>
        <g
           id="g1364"
           transform="scale(1.51385)"
           style="fill:#004bd9;fill-opacity:1;stroke:none">
          <path
             d="m 15741.4,5383.64 558.6,967.66 h -1585.6 l 1027,-967.66"
             style="fill:#004bd9;fill-opacity:1;fill-rule:evenodd;stroke:none"
             id="path1366" />
        </g>
        <g
           id="g1966"
           transform="scale(1.473)"
           style="fill:#004bd9;fill-opacity:1;stroke:none">
          <path
             d="m 16123.7,6769.05 h 176.3 l -132.3,229.19 c -14.3,-72.51 -29,-148.95 -44,-229.19"
             style="fill:#004bd9;fill-opacity:1;fill-rule:evenodd;stroke:none"
             id="path1968" />
        </g>
        <g
           id="g1970"
           transform="scale(1.26398)"
           style="fill:#004bd9;fill-opacity:1;stroke:none">
          <path
             d="m 15886.5,11923 c -84.9,-119.7 -166.4,-226.6 -244.6,-320.9 h 658.1 l -278.2,481.9 c -46.3,-50 -91.5,-103.8 -135.3,-161"
             style="fill:#004bd9;fill-opacity:1;fill-rule:evenodd;stroke:none"
             id="path1972" />
        </g>
        <g
           id="g1974"
           transform="scale(1.55958)"
           style="fill:#004bd9;fill-opacity:1;stroke:none">
          <path
             d="m 15820.5,3215.28 479.5,830.55 h -331.1 c -47.7,-255.97 -97.2,-532.84 -148.4,-830.55"
             style="fill:#004bd9;fill-opacity:1;fill-rule:evenodd;stroke:none"
             id="path1976" />
        </g>
        <g
           id="g1978"
           transform="scale(1.33818)"
           style="fill:#004bd9;fill-opacity:1;stroke:none">
          <path
             d="m 15195.7,6981.51 335.3,-335.31 335.4,-335.3 216.8,552.09 216.8,552.17 -552.2,-216.86 -552.1,-216.79"
             style="fill:#004bd9;fill-opacity:1;fill-rule:evenodd;stroke:none"
             id="path1980" />
        </g>
        <g
           id="g1982"
           transform="scale(1.29993)"
           style="fill:#004bd9;fill-opacity:1;stroke:none">
          <path
             d="m 16114.8,9656.7 185.2,320.87 h -608.3 c 132.8,-140.01 275.4,-252.94 423.1,-320.87"
             style="fill:#004bd9;fill-opacity:1;fill-rule:evenodd;stroke:none"
             id="path1984" />
        </g>
        <g
           id="g1986"
           transform="scale(1.2656)"
           style="fill:#004bd9;fill-opacity:1;stroke:none">
          <path
             d="m 15922.3,9541.52 c 91.8,-42.19 185.6,-65.5 280.4,-65.5 32.4,0 64.7,2.05 97.3,6.08 l -206.1,356.75 -171.6,-297.33"
             style="fill:#004bd9;fill-opacity:1;fill-rule:evenodd;stroke:none"
             id="path1988" />
        </g>
        <g
           id="g1990"
           transform="scale(1.43268)"
           style="fill:#004bd9;fill-opacity:1;stroke:none">
          <path
             d="m 15627.1,9879.17 h 672.9 l -333.3,577.23 c -115.2,-191 -228,-383.7 -339.6,-577.23"
             style="fill:#004bd9;fill-opacity:1;fill-rule:evenodd;stroke:none"
             id="path1992" />
        </g>
        <g
           id="g1994"
           transform="scale(1.27752)"
           style="fill:#004bd9;fill-opacity:1;stroke:none">
          <path
             d="m 15737.3,7955.92 h 562.7 l -590.4,1022.61 27.7,-1022.61"
             style="fill:#004bd9;fill-opacity:1;fill-rule:evenodd;stroke:none"
             id="path1996" />
        </g>
        <g
           id="g1998"
           transform="scale(1.50694)"
           style="fill:#004bd9;fill-opacity:1;stroke:none">
          <path
             d="m 16119.7,11538.6 180.3,312.1 c -100.5,-10.8 -212.9,-25.7 -335,-44.2 l 154.7,-267.9"
             style="fill:#004bd9;fill-opacity:1;fill-rule:evenodd;stroke:none"
             id="path2000" />
        </g>
        <g
           id="g2002"
           transform="scale(1.37871)"
           style="fill:#004bd9;fill-opacity:1;stroke:none">
          <path
             d="m 15806.8,4299.67 4.1,7.25 489.1,846.95 h -757.1 c 62.5,-266.77 150.6,-551.46 263.9,-854.2"
             style="fill:#004bd9;fill-opacity:1;fill-rule:evenodd;stroke:none"
             id="path2004" />
        </g>
        <g
           id="g2006"
           transform="scale(1.43785)"
           style="fill:#004bd9;fill-opacity:1;stroke:none">
          <path
             d="m 15558.3,4203.3 h 741.7 l -298.2,516.47 -443.5,-516.47"
             style="fill:#004bd9;fill-opacity:1;fill-rule:evenodd;stroke:none"
             id="path2008" />
        </g>
        <g
           id="g2010"
           transform="scale(1.35371)"
           style="fill:#004bd9;fill-opacity:1;stroke:none">
          <path
             d="m 15858.4,8217.37 h 441.6 l -522,904.04 c 5.6,-286.92 32.5,-588.24 80.4,-904.04"
             style="fill:#004bd9;fill-opacity:1;fill-rule:evenodd;stroke:none"
             id="path2012" />
        </g>
        <g
           id="g2014"
           transform="scale(1.50783)"
           style="fill:#004bd9;fill-opacity:1;stroke:none">
          <path
             d="m 15924.4,3917.54 375.6,650.6 h -496.7 c 32,-211.16 72.4,-427.9 121.1,-650.6"
             style="fill:#004bd9;fill-opacity:1;fill-rule:evenodd;stroke:none"
             id="path2016" />
        </g>
        <g
           id="g2018"
           transform="scale(1.29374)"
           style="fill:#004bd9;fill-opacity:1;stroke:none">
          <path
             d="m 15805.5,6558.37 -216.8,-310.19 -216.6,-310.18 464,-93.38 463.9,-93.37 -247.3,403.56 -247.2,403.56"
             style="fill:#004bd9;fill-opacity:1;fill-rule:evenodd;stroke:none"
             id="path2020" />
        </g>
        <g
           id="g2022"
           transform="scale(1.35221)"
           style="fill:#004bd9;fill-opacity:1;stroke:none">
          <path
             d="m 15581.5,7899.64 88,-274.96 87.9,-275.03 271.3,238.35 271.3,238.35 -359.2,36.6 -359.3,36.69"
             style="fill:#004bd9;fill-opacity:1;fill-rule:evenodd;stroke:none"
             id="path2024" />
        </g>
        <g
           id="g2026"
           transform="scale(1.34316)"
           style="fill:#004bd9;fill-opacity:1;stroke:none">
          <path
             d="m 15967.7,10175.5 -145.5,-208.4 -145.6,-208.32 311.7,-62.76 311.7,-62.69 -166.1,271.08 -166.2,271.09"
             style="fill:#004bd9;fill-opacity:1;fill-rule:evenodd;stroke:none"
             id="path2028" />
        </g>
        <g
           id="g2030"
           transform="scale(1.48026)"
           style="fill:#004bd9;fill-opacity:1;stroke:none">
          <path
             d="m 15600.1,3910.54 -122.6,-358.66 -122.5,-358.65 472.4,38.78 472.6,38.84 -349.9,319.81 -350,319.88"
             style="fill:#004bd9;fill-opacity:1;fill-rule:evenodd;stroke:none"
             id="path2032" />
        </g>
        <g
           id="g2034"
           transform="scale(1.44696)"
           style="fill:#004bd9;fill-opacity:1;stroke:none">
          <path
             d="m 14969.1,5409.19 c 426.2,-104.15 869.7,-196.89 1330.9,-278.37 l -942.7,1222.21 -388.2,-943.84"
             style="fill:#004bd9;fill-opacity:1;fill-rule:evenodd;stroke:none"
             id="path2036" />
        </g>
        <g
           id="g2038"
           transform="scale(1.39393)"
           style="fill:#004bd9;fill-opacity:1;stroke:none">
          <path
             d="m 15742.6,3417.18 -97.7,-285.66 -97.5,-285.6 376.3,30.85 376.3,30.92 -278.7,254.75 -278.7,254.74"
             style="fill:#004bd9;fill-opacity:1;fill-rule:evenodd;stroke:none"
             id="path2040" />
        </g>
        <g
           id="g2042"
           transform="scale(1.48515)"
           style="fill:#004bd9;fill-opacity:1;stroke:none">
          <path
             d="m 15010.9,2354.78 116.2,-511.46 116,-511.53 528.5,388.92 528.4,388.91 -644.5,122.62 -644.6,122.54"
             style="fill:#004bd9;fill-opacity:1;fill-rule:evenodd;stroke:none"
             id="path2044" />
        </g>
        <g
           id="g2046"
           transform="scale(1.29264)"
           style="fill:#004bd9;fill-opacity:1;stroke:none">
          <path
             d="m 16011.4,8509.35 288.6,499.75 h -381.5 c 24.5,-162.15 55.5,-328.71 92.9,-499.75"
             style="fill:#004bd9;fill-opacity:1;fill-rule:evenodd;stroke:none"
             id="path2048" />
        </g>
        <g
           id="g2050"
           transform="scale(1.33459)"
           style="fill:#004bd9;fill-opacity:1;stroke:none">
          <path
             d="m 16211.7,11640.2 88.3,630.5 c -199.1,-76.1 -397.2,-154.9 -595,-234.9 l 506.7,-395.6"
             style="fill:#004bd9;fill-opacity:1;fill-rule:evenodd;stroke:none"
             id="path2052" />
        </g>
        <g
           id="g2054"
           transform="scale(1.2649)"
           style="fill:#004bd9;fill-opacity:1;stroke:none">
          <path
             d="m 15916.7,11260 -167.9,-240.4 -168,-240.4 359.6,-72.5 359.6,-72.3 -191.6,312.7 -191.7,312.9"
             style="fill:#004bd9;fill-opacity:1;fill-rule:evenodd;stroke:none"
             id="path2056" />
        </g>
        <g
           id="g2058"
           transform="scale(1.46294)"
           style="fill:#004bd9;fill-opacity:1;stroke:none">
          <path
             d="m 15713.6,11715.2 h 586.4 l -290.4,503 c -100.5,-166.6 -198.7,-334.4 -296,-503"
             style="fill:#004bd9;fill-opacity:1;fill-rule:evenodd;stroke:none"
             id="path2060" />
        </g>
        <g
           id="g2062"
           transform="scale(1.37983)"
           style="fill:#004bd9;fill-opacity:1;stroke:none">
          <path
             d="m 16071.6,12381.7 228.4,364.7 c -143.9,7.9 -287.8,14 -431.9,19.1 l 203.5,-383.8"
             style="fill:#004bd9;fill-opacity:1;fill-rule:evenodd;stroke:none"
             id="path2064" />
        </g>
        <g
           id="g2066"
           transform="scale(1.28755)"
           style="fill:#004bd9;fill-opacity:1;stroke:none">
          <path
             d="m 15870.7,12657.3 -188,-269.2 -188.1,-269.2 402.7,-81.1 402.7,-81 -214.6,350.3 -214.7,350.2"
             style="fill:#004bd9;fill-opacity:1;fill-rule:evenodd;stroke:none"
             id="path2068" />
        </g>
        <g
           id="g2070"
           transform="scale(1.31754)"
           style="fill:#004bd9;fill-opacity:1;stroke:none">
          <path
             d="m 15381,13481.2 48.4,-379.7 48.4,-379.6 411.1,245.3 411.1,245.4 -459.5,134.3 -459.5,134.3"
             style="fill:#004bd9;fill-opacity:1;fill-rule:evenodd;stroke:none"
             id="path2072" />
        </g>
        <g
           id="g2074"
           transform="scale(1.36975)"
           style="fill:#004bd9;fill-opacity:1;stroke:none">
          <path
             d="m 16237.1,11952.9 62.9,448.9 c -141.7,-54.3 -282.8,-110.3 -423.6,-167.4 l 360.7,-281.5"
             style="fill:#004bd9;fill-opacity:1;fill-rule:evenodd;stroke:none"
             id="path2076" />
        </g>
        <g
           id="g2078"
           transform="scale(1.75806)"
           style="fill:#004bd9;fill-opacity:1;stroke:none">
          <path
             d="m 15567.4,1025.85 299.1,-189.014 299.1,-189.017 67.2,437.471 67.2,437.48 -366.3,-248.46 -366.3,-248.46"
             style="fill:#004bd9;fill-opacity:1;fill-rule:evenodd;stroke:none"
             id="path2080" />
        </g>
        <g
           id="g2082"
           transform="scale(1.35859)"
           style="fill:#004bd9;fill-opacity:1;stroke:none">
          <path
             d="m 15658.8,1986.4 261.8,-165.46 261.9,-165.47 58.7,382.97 58.8,382.9 -320.6,-217.43 -320.6,-217.51"
             style="fill:#004bd9;fill-opacity:1;fill-rule:evenodd;stroke:none"
             id="path2084" />
        </g>
        <g
           id="g2086"
           transform="scale(1.50576)"
           style="fill:#004bd9;fill-opacity:1;stroke:none">
          <path
             d="m 15679.8,2739.88 253.2,-160.05 253.2,-159.99 56.9,370.38 56.9,370.31 -310.1,-210.33 -310.1,-210.32"
             style="fill:#004bd9;fill-opacity:1;fill-rule:evenodd;stroke:none"
             id="path2088" />
        </g>
        <g
           id="g2090"
           transform="scale(1.36106)"
           style="fill:#004bd9;fill-opacity:1;stroke:none">
          <path
             d="m 15921.3,3936.12 154.6,-97.72 154.6,-97.72 34.7,226.15 34.8,226.15 -189.4,-128.43 -189.3,-128.43"
             style="fill:#004bd9;fill-opacity:1;fill-rule:evenodd;stroke:none"
             id="path2092" />
        </g>
        <g
           id="g2094"
           transform="scale(1.33167)"
           style="fill:#004bd9;fill-opacity:1;stroke:none">
          <path
             d="m 15610.9,4339.57 -120.7,-353.16 -120.7,-353.09 465.2,38.15 465.3,38.22 -344.5,314.94 -344.6,314.94"
             style="fill:#004bd9;fill-opacity:1;fill-rule:evenodd;stroke:none"
             id="path2096" />
        </g>
        <g
           id="g2098"
           transform="scale(1.31715)"
           style="fill:#004bd9;fill-opacity:1;stroke:none">
          <path
             d="m 15777.5,3149.31 -91.6,-267.78 -91.4,-267.77 352.8,29 352.7,28.93 -261.2,238.84 -261.3,238.78"
             style="fill:#004bd9;fill-opacity:1;fill-rule:evenodd;stroke:none"
             id="path2100" />
        </g>
        <g
           id="g2102"
           transform="scale(1.28588)"
           style="fill:#004bd9;fill-opacity:1;stroke:none">
          <path
             d="m 15761.1,5167.97 538.9,-358.51 -86.2,699.91 -452.7,-341.4"
             style="fill:#004bd9;fill-opacity:1;fill-rule:evenodd;stroke:none"
             id="path2104" />
        </g>
        <g
           id="g2150"
           transform="scale(1.58999)"
           style="fill:#004bd9;fill-opacity:1;stroke:none">
          <path
             d="m 15746,10915.1 c 201.9,-30.5 387.8,-55.3 554,-73.2 l -298.1,516.3 -255.9,-443.1"
             style="fill:#004bd9;fill-opacity:1;fill-rule:evenodd;stroke:none"
             id="path2152" />
        </g>
        <g
           id="g2154"
           transform="scale(1.63983)"
           style="fill:#004bd9;fill-opacity:1;stroke:none">
          <path
             d="m 15448.4,2598.25 136.2,-454.5 136.3,-454.56 289.6,245.15 289.5,245.15 -425.8,209.41 -425.8,209.35"
             style="fill:#004bd9;fill-opacity:1;fill-rule:evenodd;stroke:none"
             id="path2156" />
        </g>
        <g
           id="g2158"
           transform="scale(1.64558)"
           style="fill:#004bd9;fill-opacity:1;stroke:none">
          <path
             d="m 15749.3,1492.61 50.5,-328.82 50.5,-328.822 224.9,142.076 224.8,142.076 -275.3,186.75 -275.4,186.74"
             style="fill:#004bd9;fill-opacity:1;fill-rule:evenodd;stroke:none"
             id="path2160" />
        </g>
        <g
           id="g2162"
           transform="scale(1.53352)"
           style="fill:#004bd9;fill-opacity:1;stroke:none">
          <path
             d="m 15460.2,1298.91 342.8,-216.69 343,-216.758 77,501.528 77,501.6 -419.9,-284.84 -419.9,-284.84"
             style="fill:#004bd9;fill-opacity:1;fill-rule:evenodd;stroke:none"
             id="path2164" />
        </g>
        <g
           id="g2166"
           transform="scale(1.70952)"
           style="fill:#004bd9;fill-opacity:1;stroke:none">
          <path
             d="m 15854.2,1640.7 182,-115 182,-115.01 40.9,266.22 40.9,266.16 -222.9,-151.16 -222.9,-151.21"
             style="fill:#004bd9;fill-opacity:1;fill-rule:evenodd;stroke:none"
             id="path2168" />
        </g>
        <g
           id="g2170"
           transform="scale(1.32197)"
           style="fill:#004bd9;fill-opacity:1;stroke:none">
          <path
             d="m 15712.2,1775.31 -102.8,-301.15 -103,-301.21 396.8,32.6 396.8,32.53 -293.9,268.62 -293.9,268.61"
             style="fill:#004bd9;fill-opacity:1;fill-rule:evenodd;stroke:none"
             id="path2172" />
        </g>
        <g
           id="g2174"
           transform="scale(1.51794)"
           style="fill:#004bd9;fill-opacity:1;stroke:none">
          <path
             d="m 15829.5,4801.98 c 152.7,23.12 309.4,52.3 470.5,87.48 l -470.5,271.69 v -359.17"
             style="fill:#004bd9;fill-opacity:1;fill-rule:evenodd;stroke:none"
             id="path2176" />
        </g>
        <g
           id="g2178"
           transform="scale(1.64474)"
           style="fill:#004bd9;fill-opacity:1;stroke:none">
          <path
             d="m 15866.7,3623 -332.7,-334.03 -332.7,-334.04 549.4,-214.44 549.3,-214.38 -216.7,548.42 -216.6,548.47"
             style="fill:#004bd9;fill-opacity:1;fill-rule:evenodd;stroke:none"
             id="path2180" />
        </g>
        <g
           id="g2182"
           transform="scale(1.6471)"
           style="fill:#004bd9;fill-opacity:1;stroke:none">
          <path
             d="m 16081.3,3648.53 c 5.1,-15.49 10,-30.79 14.8,-45.84 l 203.9,73.16 -320,270.96 c 34.2,-102.97 68,-202.42 101.3,-298.28"
             style="fill:#004bd9;fill-opacity:1;fill-rule:evenodd;stroke:none"
             id="path2184" />
        </g>
        <g
           id="g2186"
           transform="scale(1.69698)"
           style="fill:#004bd9;fill-opacity:1;stroke:none">
          <path
             d="m 15908.8,2331.26 118.5,-118.92 118.4,-118.97 77.2,195.34 77.1,195.23 -195.6,-76.31 -195.6,-76.37"
             style="fill:#004bd9;fill-opacity:1;fill-rule:evenodd;stroke:none"
             id="path2188" />
        </g>
      </g>
    </g>
  </g>
</svg>
